<?xml version="1.0" encoding="UTF-8" standalone="no"?>
<!-- Created with Inkscape (http://www.inkscape.org/) -->

<svg
   xmlns:dc="http://purl.org/dc/elements/1.1/"
   xmlns:cc="http://creativecommons.org/ns#"
   xmlns:rdf="http://www.w3.org/1999/02/22-rdf-syntax-ns#"
   xmlns:svg="http://www.w3.org/2000/svg"
   xmlns="http://www.w3.org/2000/svg"
   xmlns:sodipodi="http://sodipodi.sourceforge.net/DTD/sodipodi-0.dtd"
   xmlns:inkscape="http://www.inkscape.org/namespaces/inkscape"
   width="1920"
   height="1080"
   viewBox="0 0 508 285.75001"
   version="1.1"
   id="svg8"
   sodipodi:docname="puffy.svg"
   inkscape:export-filename="/home/romanzolotarev/src/www/openbsd.amsterdam/bunq.png"
   inkscape:export-xdpi="96"
   inkscape:export-ydpi="96"
   inkscape:version="0.92.2 2405546, 2018-03-11"
   style="shape-rendering:crispEdges">
  <defs
     id="defs2">
    <filter
       style="color-interpolation-filters:sRGB"
       inkscape:label="Lightness-Contrast"
       id="filter4592">
      <feColorMatrix
         type="hueRotate"
         values="180"
         result="color1"
         id="feColorMatrix4588" />
      <feColorMatrix
         values="-1 0 0 0 1 0 -1 0 0 1 0 0 -1 0 1 -0.21 -0.72 -0.07 2 0 "
         result="fbSourceGraphic"
         id="feColorMatrix4590" />
      <feColorMatrix
         result="fbSourceGraphicAlpha"
         in="fbSourceGraphic"
         values="0 0 0 -1 0 0 0 0 -1 0 0 0 0 -1 0 0 0 0 1 0"
         id="feColorMatrix4594" />
      <feColorMatrix
         id="feColorMatrix4596"
         type="hueRotate"
         values="180"
         result="color1"
         in="fbSourceGraphic" />
      <feColorMatrix
         id="feColorMatrix4598"
         values="-1 0 0 0 1 0 -1 0 0 1 0 0 -1 0 1 -0.21 -0.72 -0.07 2 0 "
         result="fbSourceGraphic" />
      <feColorMatrix
         result="fbSourceGraphicAlpha"
         in="fbSourceGraphic"
         values="0 0 0 -1 0 0 0 0 -1 0 0 0 0 -1 0 0 0 0 1 0"
         id="feColorMatrix4600" />
      <feColorMatrix
         id="feColorMatrix4602"
         type="hueRotate"
         values="180"
         result="color1"
         in="fbSourceGraphic" />
      <feColorMatrix
         id="feColorMatrix4604"
         values="-1 0 0 0 1 0 -1 0 0 1 0 0 -1 0 1 -0.21 -0.72 -0.07 2 0 "
         result="fbSourceGraphic" />
      <feColorMatrix
         result="fbSourceGraphicAlpha"
         in="fbSourceGraphic"
         values="0 0 0 -1 0 0 0 0 -1 0 0 0 0 -1 0 0 0 0 1 0"
         id="feColorMatrix4656" />
      <feColorMatrix
         id="feColorMatrix4658"
         values="1 0 0 -0.34555 -0 0 1 0 -0.34555 -0 0 0 1 -0.34555 -0 0 0 0 1 0"
         in="fbSourceGraphic" />
    </filter>
    <filter
       style="color-interpolation-filters:sRGB;"
       inkscape:label="Invert"
       id="filter4592-5">
      <feColorMatrix
         type="hueRotate"
         values="180"
         result="color1"
         id="feColorMatrix4588-3" />
      <feColorMatrix
         values="-1 0 0 0 1 0 -1 0 0 1 0 0 -1 0 1 -0.21 -0.72 -0.07 2 0 "
         result="fbSourceGraphic"
         id="feColorMatrix4590-5" />
      <feColorMatrix
         result="fbSourceGraphicAlpha"
         in="fbSourceGraphic"
         values="0 0 0 -1 0 0 0 0 -1 0 0 0 0 -1 0 0 0 0 1 0"
         id="feColorMatrix4594-6" />
      <feColorMatrix
         id="feColorMatrix4596-1"
         type="hueRotate"
         values="180"
         result="color1"
         in="fbSourceGraphic" />
      <feColorMatrix
         id="feColorMatrix4598-1"
         values="-1 0 0 0 1 0 -1 0 0 1 0 0 -1 0 1 -0.21 -0.72 -0.07 2 0 "
         result="fbSourceGraphic" />
      <feColorMatrix
         result="fbSourceGraphicAlpha"
         in="fbSourceGraphic"
         values="0 0 0 -1 0 0 0 0 -1 0 0 0 0 -1 0 0 0 0 1 0"
         id="feColorMatrix4600-6" />
      <feColorMatrix
         id="feColorMatrix4602-7"
         type="hueRotate"
         values="180"
         result="color1"
         in="fbSourceGraphic" />
      <feColorMatrix
         id="feColorMatrix4604-3"
         values="-1 0 0 0 1 0 -1 0 0 1 0 0 -1 0 1 -0.21 -0.72 -0.07 2 0 "
         result="fbSourceGraphic" />
      <feColorMatrix
         result="fbSourceGraphicAlpha"
         in="fbSourceGraphic"
         values="0 0 0 -1 0 0 0 0 -1 0 0 0 0 -1 0 0 0 0 1 0"
         id="feColorMatrix4656-8" />
      <feColorMatrix
         id="feColorMatrix4658-9"
         values="1 0 0 -0.34555 -0 0 1 0 -0.34555 -0 0 0 1 -0.34555 -0 0 0 0 1 0"
         in="fbSourceGraphic"
         result="fbSourceGraphic" />
      <feColorMatrix
         result="fbSourceGraphicAlpha"
         in="fbSourceGraphic"
         values="0 0 0 -1 0 0 0 0 -1 0 0 0 0 -1 0 0 0 0 1 0"
         id="feColorMatrix735" />
      <feColorMatrix
         id="feColorMatrix737"
         type="hueRotate"
         values="180"
         result="color1"
         in="fbSourceGraphic" />
      <feColorMatrix
         id="feColorMatrix739"
         values="-1 0 0 0 1 0 -1 0 0 1 0 0 -1 0 1 -0.21 -0.72 -0.07 2 0 "
         result="color2" />
    </filter>
  </defs>
  <sodipodi:namedview
     id="base"
     pagecolor="#ffffff"
     bordercolor="#666666"
     borderopacity="1.0"
     inkscape:pageopacity="0.0"
     inkscape:pageshadow="2"
     inkscape:zoom="0.5"
     inkscape:cx="811.73501"
     inkscape:cy="582.66613"
     inkscape:document-units="px"
     inkscape:current-layer="g3981"
     showgrid="false"
     units="px"
     inkscape:snap-page="true"
     inkscape:window-width="1918"
     inkscape:window-height="1078"
     inkscape:window-x="0"
     inkscape:window-y="0"
     inkscape:window-maximized="1"
     inkscape:snap-text-baseline="true"
     showguides="false"
     showborder="true"
     inkscape:showpageshadow="false"
     inkscape:pagecheckerboard="true"
     inkscape:measure-start="0,0"
     inkscape:measure-end="0,0" />
  <metadata
     id="metadata5">
    <rdf:RDF>
      <cc:Work
         rdf:about="">
        <dc:format>image/svg+xml</dc:format>
        <dc:type
           rdf:resource="http://purl.org/dc/dcmitype/StillImage" />
        <dc:title />
      </cc:Work>
    </rdf:RDF>
  </metadata>
  <g
     inkscape:label="Layer 1"
     inkscape:groupmode="layer"
     id="layer1"
     transform="translate(0,-11.249983)">
    <g
       id="g4018"
       transform="matrix(3.3333332,0,0,3.3333332,-599.7222,-125.02775)">
      <g
         id="g4038"
         style="stroke:none"
         transform="matrix(0.12,0,0,0.11999999,211.66667,71.918332)"
         inkscape:export-xdpi="96"
         inkscape:export-ydpi="96" />
    </g>
    <g
       inkscape:export-ydpi="191.99998"
       inkscape:export-xdpi="191.99998"
       id="g3981"
       transform="matrix(0.71046093,0,0,0.71046093,-193.09281,-420.60401)">
      <rect
         style="fill:#ffffff;stroke-width:2.46798825"
         id="rect1243"
         width="715.02875"
         height="402.20367"
         x="271.78525"
         y="607.85046" />
      <g
         id="g1255"
         transform="matrix(4.6165707,0,0,4.6165707,-1569.5907,-2801.5073)">
        <path
           style="fill:#000000;stroke-width:0.06611301;shape-rendering:crispEdges"
           d="m 481.42164,823.3164 c -0.14856,-0.55879 -0.47403,-1.59453 -0.56613,-1.80159 -0.0646,-0.14544 -0.27338,-0.67016 -0.46377,-1.16604 -0.38735,-1.00885 -0.42592,-1.04876 -1.01312,-1.04871 l -0.34399,4e-5 -0.1157,0.58331 c -0.0637,0.32082 -0.11571,0.70512 -0.11571,0.854 0,0.44079 -0.43567,1.1946 -0.59713,1.03314 -0.0344,-0.0344 -0.15157,-0.58551 -0.2603,-1.22458 -0.10871,-0.63909 -0.21574,-1.20904 -0.23782,-1.26658 -0.0343,-0.0894 -0.43338,-0.20867 -0.88554,-0.26487 -0.17867,-0.0222 -1.18877,2.19457 -1.4255,3.12837 -0.15808,0.62352 -0.26631,0.71802 -0.5147,0.44935 -0.13492,-0.14593 -0.14521,-0.22316 -0.14852,-1.11297 -0.004,-0.9583 -0.13712,-1.89152 -0.3949,-2.75962 -0.11941,-0.40188 -0.23846,-0.49756 -0.83212,-0.66844 -0.23223,-0.0668 -0.47,-0.14199 -0.52835,-0.167 -0.11927,-0.0511 -0.2309,0.1739 -0.58061,1.17046 -0.29068,0.82833 -0.30095,0.84315 -0.55421,0.80106 -0.54228,-0.0902 -0.51119,-0.0612 -0.50989,-0.47432 6.5e-4,-0.20839 0.0447,-0.66152 0.098,-1.00697 0.1282,-0.83217 0.12573,-0.98793 -0.0166,-1.03029 -0.0637,-0.0189 -0.23471,-0.0925 -0.38016,-0.16338 -0.14545,-0.071 -0.3122,-0.12889 -0.37055,-0.12875 -0.2884,6.3e-4 -1.16082,1.18067 -1.80781,2.44553 -0.21265,0.41573 -0.41315,0.72808 -0.46735,0.72808 -0.0522,0 -0.13734,-0.067 -0.18916,-0.14876 -0.0829,-0.13094 -0.0756,-0.25565 0.0614,-1.04128 0.18603,-1.0668 0.31099,-2.50382 0.25393,-2.92013 -0.0366,-0.26681 -0.0824,-0.33226 -0.4129,-0.59071 -0.69418,-0.54271 -1.13713,-0.79969 -1.23641,-0.7173 -0.24355,0.20214 -0.87828,1.05125 -1.05407,1.41013 -0.21316,0.43514 -0.39525,0.53182 -0.69721,0.37022 -0.19002,-0.10171 -0.14945,-0.30084 0.30651,-1.50434 0.1967,-0.5192 0.35763,-1.02935 0.35763,-1.13365 0,-0.15177 -0.0931,-0.27213 -0.46587,-0.60267 -0.46219,-0.40977 -0.4678,-0.41245 -0.71072,-0.33904 -0.66392,0.20062 -1.793,1.09713 -2.28932,1.81777 -0.27771,0.40321 -0.59562,0.66814 -0.73679,0.61397 -0.15607,-0.0598 -0.11406,-0.20072 0.3351,-1.12394 0.23635,-0.4858 0.42973,-0.90282 0.42973,-0.92672 0,-0.0239 0.15106,-0.4343 0.33568,-0.912 0.44524,-1.15206 0.46379,-1.67358 0.0753,-2.11893 -0.27777,-0.31844 -1.07605,6.5e-4 -1.81051,0.72367 -0.26549,0.26137 -0.40736,0.35645 -0.48654,0.32606 -0.17204,-0.066 -0.0703,-0.44435 0.19516,-0.72582 0.27027,-0.28657 0.76417,-1.02203 0.96486,-1.43675 l 0.14662,-0.30297 -0.39608,-0.88706 c -0.21785,-0.4879 -0.41675,-0.95402 -0.44199,-1.03584 -0.0515,-0.16688 -0.15714,-0.18875 -0.31936,-0.0661 -0.0601,0.0454 -0.26042,0.49764 -0.44511,1.00485 -0.1847,0.50721 -0.3957,1.01913 -0.46891,1.13757 -0.47199,0.76371 -1.86276,1.46978 -3.12772,1.5879 -0.33006,0.0309 -0.42294,0.0188 -0.4526,-0.0585 -0.0571,-0.14877 0.0376,-0.2508 0.32069,-0.34576 0.2045,-0.0686 0.29584,-0.15566 0.4415,-0.42096 0.27526,-0.50133 0.26123,-0.76079 -0.12106,-2.23947 -0.36509,-1.41207 -0.93988,-2.72722 -1.83462,-4.1977 -0.92029,-1.51246 -2.6523,-3.59695 -3.24391,-3.90406 -0.3668,-0.19041 -0.87298,-0.18641 -1.18982,0.01 -0.18779,0.11612 -0.26203,0.13066 -0.36983,0.073 -0.0743,-0.0397 -0.13328,-0.1083 -0.13122,-0.15251 0.007,-0.13602 0.92234,-0.78796 1.56268,-1.11199 0.72067,-0.36468 1.37577,-0.53869 2.0636,-0.54813 0.8224,-0.011 1.05211,0.0566 1.80206,0.53185 0.37591,0.23826 0.69835,0.45422 0.71652,0.4799 0.0181,0.0257 0.3157,0.25555 0.66113,0.5108 0.34544,0.25526 0.92068,0.70639 1.27831,1.00251 0.72523,0.60052 0.96991,0.69578 1.33727,0.52058 0.12147,-0.0579 0.26935,-0.17936 0.32867,-0.26991 0.14942,-0.22803 0.49982,-1.17998 0.46678,-1.26808 -0.0491,-0.13094 -0.7547,-0.55739 -1.19844,-0.72442 -0.23974,-0.0902 -0.58475,-0.23951 -0.76668,-0.33169 -0.60893,-0.30858 -0.24309,-0.44628 0.68353,-0.25728 0.64551,0.13162 1.2221,0.1472 1.42536,0.0384 0.11365,-0.0608 0.14754,-0.13778 0.14754,-0.33482 0,-0.23933 -0.0288,-0.27713 -0.44627,-0.58474 -0.24544,-0.18087 -0.62477,-0.4402 -0.84294,-0.57629 -1.08918,-0.67939 -1.26954,-0.86581 -1.1776,-1.21732 0.0406,-0.15532 0.36191,-0.33622 0.59715,-0.33622 0.0877,0 0.50161,0.15175 0.91969,0.33722 0.51946,0.23044 0.88142,0.34821 1.14309,0.37194 l 0.38291,0.0347 0.13506,-0.5207 c 0.0743,-0.28639 0.14931,-0.58441 0.16671,-0.66229 0.0265,-0.11858 -0.0482,-0.18727 -0.46027,-0.42301 -0.27054,-0.15479 -0.67599,-0.3481 -0.901,-0.42957 -0.22843,-0.0828 -0.40908,-0.18786 -0.40908,-0.23811 0,-0.1028 0.22404,-0.10692 1.2525,-0.0229 l 0.65749,0.0537 -0.32692,-0.41622 c -0.40592,-0.51681 -1.55211,-1.61721 -2.12024,-2.03553 -0.37681,-0.27748 -0.42369,-0.33641 -0.40712,-0.51192 0.0173,-0.18284 0.0408,-0.19994 0.3018,-0.21877 0.24419,-0.0177 0.38958,0.0386 1.0578,0.40858 0.86946,0.48149 1.64688,0.76883 2.0801,0.76883 0.43469,0 0.97551,-0.17751 0.97551,-0.32019 0,-0.20103 -0.35881,-0.69139 -0.74909,-1.02371 -0.41287,-0.35154 -0.49148,-0.57338 -0.20322,-0.57338 0.0944,0 0.25057,0.0556 0.34709,0.12366 0.37281,0.26256 1.39858,0.71392 1.39858,0.6154 0,-0.0288 -0.51996,-0.616 -1.15546,-1.30477 -0.72015,-0.78053 -1.15605,-1.30451 -1.15698,-1.39083 -6.4e-4,-0.0762 0.0579,-0.19235 0.13067,-0.25818 0.0727,-0.0659 0.13217,-0.15967 0.13217,-0.20859 0,-0.12847 0.31408,-0.10856 0.64341,0.041 0.15389,0.0699 0.4835,0.28954 0.73246,0.48819 1.02851,0.82062 2.02724,1.37741 2.28992,1.27661 0.12559,-0.0482 0.30118,-0.46723 0.29942,-0.71467 -0.004,-0.51295 -0.56178,-1.4757 -1.46881,-2.53354 -0.28146,-0.32825 -0.51202,-0.65782 -0.51238,-0.73237 -6.4e-4,-0.15927 0.11722,-0.2942 0.25716,-0.2942 0.0545,0 0.44277,0.33523 0.86277,0.74495 1.14356,1.11556 1.35029,1.25985 2.05925,1.43738 0.26117,0.0653 0.34019,0.059 0.56196,-0.045 0.32777,-0.15384 0.35632,-0.33805 0.1293,-0.83433 -0.0928,-0.20292 -0.16876,-0.39914 -0.16876,-0.43605 0,-0.0369 -0.10788,-0.27361 -0.2397,-0.52601 -0.13176,-0.2524 -0.21933,-0.49186 -0.19443,-0.53214 0.10472,-0.1694 0.29453,-0.0413 0.71943,0.48539 0.24782,0.30719 0.58992,0.65083 0.76023,0.76364 l 0.30967,0.20513 0.11571,-0.14296 c 0.1578,-0.19486 0.1455,-0.43019 -0.0496,-0.94835 -0.0909,-0.24152 -0.1653,-0.50122 -0.1653,-0.5771 0,-0.0759 -0.13382,-0.53468 -0.2975,-1.01952 -0.16363,-0.48482 -0.29751,-0.99814 -0.29751,-1.14071 0,-0.25866 6.5e-4,-0.25929 0.31025,-0.30173 0.17064,-0.0233 0.3322,-0.02 0.35901,0.008 0.0268,0.0276 0.27887,0.49632 0.56013,1.04176 0.54912,1.06485 0.77637,1.4315 1.03821,1.67498 0.15778,0.14671 0.17426,0.14901 0.33096,0.0462 0.29476,-0.19313 0.53598,-0.63003 0.52299,-0.94724 -0.0179,-0.43712 -0.25747,-1.37633 -0.65041,-2.54989 -0.32979,-0.98488 -0.3486,-1.0734 -0.24459,-1.14967 0.062,-0.0454 0.15134,-0.0826 0.19858,-0.0826 0.11584,0 0.46496,0.48953 0.91935,1.28919 0.85872,1.51125 1.47568,2.08257 2.24894,2.08257 0.20015,0 0.22247,-0.0209 0.26525,-0.24792 0.0257,-0.1363 0.0123,-0.48748 -0.0301,-0.78027 -0.0423,-0.29278 -0.0767,-0.6146 -0.0767,-0.71516 0,-0.15908 0.0194,-0.1769 0.14876,-0.13712 0.0818,0.0251 0.15323,0.0494 0.15869,0.0541 0.006,0.004 0.089,0.24631 0.18538,0.53721 0.0965,0.2909 0.27827,0.68511 0.40394,0.876 0.21161,0.32144 0.24779,0.34709 0.48929,0.34709 0.24883,0 0.26295,-0.011 0.30827,-0.24792 0.0273,-0.14237 2.9e-4,-0.62787 -0.0636,-1.14045 -0.21424,-1.72271 -0.14576,-2.05583 0.36244,-1.76334 0.21346,0.12284 0.25981,0.19489 0.34702,0.53936 0.0553,0.21867 0.26113,0.82896 0.45726,1.35621 0.38004,1.02159 0.39553,1.03993 0.81222,0.96176 l 0.2248,-0.0421 -0.003,-0.41021 c -0.003,-0.39976 -0.13629,-1.28556 -0.22973,-1.5176 -0.038,-0.0946 -0.011,-0.11571 0.14932,-0.11571 0.18539,0 0.20641,0.0292 0.39241,0.54544 0.20514,0.56935 0.50478,1.10739 0.61671,1.10739 0.0692,0 0.22042,-0.1477 0.4148,-0.40525 0.17707,-0.23462 0.37358,-0.93162 0.48222,-1.71037 0.28038,-2.00993 0.342,-2.25702 0.54925,-2.20282 0.18293,0.0479 0.31195,0.65582 0.4043,1.90532 0.0403,0.54542 0.10115,1.11632 0.13506,1.26864 0.14834,0.66489 0.48372,1.27671 0.69985,1.27671 0.12847,0 0.38564,-0.48967 0.625,-1.19004 0.11804,-0.34543 0.22046,-0.63634 0.22755,-0.64645 0.007,-0.01 0.091,0.011 0.18646,0.0476 0.15378,0.0585 0.16614,0.0855 0.1083,0.23755 -0.0984,0.25878 -0.0843,1.71813 0.0174,1.80004 0.0454,0.0367 0.17637,0.0866 0.29093,0.11104 0.20191,0.0431 0.21144,0.0347 0.31108,-0.27336 0.0566,-0.1748 0.16586,-0.57072 0.24294,-0.8798 0.0771,-0.30907 0.19673,-0.69063 0.26588,-0.84788 0.10939,-0.24864 0.14533,-0.27975 0.27602,-0.23863 0.0826,0.0259 0.22913,0.11008 0.32551,0.18675 0.15255,0.12147 0.18056,0.20362 0.21648,0.63531 0.0973,1.16947 0.18709,1.96979 0.22856,2.03688 0.0244,0.0397 0.17606,0.13094 0.33682,0.2029 0.48337,0.21642 0.66756,0.007 0.81044,-0.92182 0.0898,-0.58332 0.20968,-0.76044 0.39665,-0.5858 0.0736,0.0688 0.0918,0.1946 0.0712,0.49004 -0.0152,0.21866 0.0124,0.67981 0.0605,1.02479 0.0826,0.58716 0.0996,0.6312 0.2662,0.68978 0.23455,0.0825 0.41103,-0.0152 0.9819,-0.54379 0.66085,-0.61184 1.16497,-1.43574 1.46913,-2.40099 0.0486,-0.15411 0.37219,-0.22149 0.49137,-0.10226 0.0836,0.0836 0.052,0.2458 -0.24799,1.27653 -0.29884,1.02655 -0.34828,1.2801 -0.37844,1.94109 -0.0327,0.71436 -0.0262,0.76792 0.10555,0.88635 0.13799,0.12395 0.14424,0.12395 0.38251,0 0.13328,-0.0693 0.47464,-0.34173 0.7587,-0.60537 0.28407,-0.26363 0.52989,-0.47931 0.54629,-0.47931 0.0707,0 0.2376,0.21634 0.2376,0.30797 0,0.055 -0.16669,0.26556 -0.37043,0.46767 -0.59926,0.59449 -0.7644,0.98905 -0.51737,1.23608 0.14079,0.14079 0.20767,0.1308 0.30134,-0.0449 0.17016,-0.31911 0.80572,-1.04129 0.91638,-1.04129 0.20407,0 0.2752,0.1564 0.20771,0.45677 -0.0338,0.15023 -0.10294,0.33949 -0.15371,0.42056 -0.0508,0.0811 -0.16403,0.38068 -0.25164,0.66577 -0.14521,0.47252 -0.15061,0.53391 -0.0611,0.6942 0.15946,0.28546 0.42786,0.26528 1.18614,-0.0892 0.36108,-0.16878 0.68703,-0.288 0.72434,-0.26494 0.15163,0.0937 0.0495,0.30101 -0.27926,0.56744 -0.66071,0.53525 -0.79918,0.81609 -0.48523,0.98411 0.19326,0.10336 0.5565,0.0301 1.46263,-0.29524 0.75408,-0.27077 1.44762,-0.61924 2.07531,-1.0428 l 0.49085,-0.33121 0.1544,0.17952 c 0.18973,0.22057 0.22291,0.16667 -0.78426,1.27374 -0.69399,0.76283 -1.37602,1.67191 -1.37698,1.83537 -2e-4,0.0383 -0.042,0.14947 -0.0929,0.24702 -0.15379,0.29478 -0.19705,0.59198 -0.0955,0.65631 0.14157,0.0898 0.50648,0.0692 1.28506,-0.0723 0.84774,-0.15409 0.8872,-0.15666 0.8872,-0.0579 0,0.11228 -0.16852,0.22683 -0.82641,0.56177 -0.73329,0.37332 -0.82661,0.45377 -0.8257,0.71192 6.4e-4,0.21089 0.14524,0.75085 0.25201,0.94163 0.0332,0.0594 0.26501,0.26057 0.51505,0.44706 0.44165,0.32939 0.5475,0.45889 1.38924,1.6995 0.16322,0.24056 0.33777,0.57367 0.38791,0.74023 0.0844,0.28056 0.0814,0.31526 -0.0416,0.47166 -0.073,0.0928 -0.19419,0.16882 -0.26921,0.16882 -0.12422,0 -0.13273,0.0273 -0.0944,0.30674 0.0232,0.16871 0.042,0.43374 0.042,0.58895 0,0.24349 0.0394,0.32271 0.28678,0.57729 0.38665,0.39782 0.85825,1.11922 1.1416,1.74621 0.12834,0.28391 0.31863,0.6947 0.42294,0.91288 0.22613,0.47297 0.48246,1.3375 0.59297,1.99992 0.0796,0.47693 0.081,0.47932 0.28885,0.47957 0.30096,2.8e-4 0.6297,0.22607 0.74798,0.51358 0.31885,0.775 0.65386,1.40108 0.86899,1.62391 0.45003,0.46619 0.91956,0.60384 1.14266,0.33501 0.14044,-0.16922 0.29877,-0.10651 0.37734,0.1496 0.0685,0.22315 0.056,0.27511 -0.15824,0.65819 -0.30786,0.55052 -0.85647,1.04951 -1.29803,1.18064 -0.45258,0.13437 -1.75968,0.13561 -2.20942,0.003 -0.18253,-0.0542 -0.43338,-0.16849 -0.55743,-0.25397 l -0.22555,-0.1554 -1.30542,1.32829 -1.30542,1.32832 0.31064,0.45564 c 0.17084,0.2506 0.45647,0.61519 0.63469,0.81022 0.30851,0.33756 0.37221,0.5526 0.16351,0.55199 -0.11817,-2.8e-4 -0.47659,-0.22489 -0.94699,-0.5932 -0.46971,-0.36779 -0.58484,-0.4318 -0.87571,-0.48695 -0.16578,-0.0314 -0.2272,-0.0156 -0.2587,0.0664 -0.0535,0.13959 0.23446,0.97299 0.4265,1.23407 0.16275,0.22127 0.18747,0.37583 0.0777,0.48565 -0.0898,0.0898 -0.64578,-0.11186 -0.95145,-0.34496 -0.29315,-0.2236 -0.3857,-0.20579 -0.59806,0.11516 -0.40524,0.61237 -0.21878,1.02287 1.09977,2.42117 0.95371,1.0114 1.0247,1.16127 0.57836,1.22114 -0.24152,0.0324 -0.29138,0.0148 -0.4319,-0.15216 -0.22264,-0.2646 -1.03663,-0.65632 -1.98712,-0.95629 -0.8032,-0.25349 -0.80927,-0.25429 -1.05781,-0.14094 -0.25517,0.1164 -0.45922,0.2786 -0.73636,0.5854 l -0.15582,0.17251 0.34922,0.64587 c 0.19206,0.35523 0.50762,0.88256 0.70125,1.17184 0.19362,0.28928 0.35205,0.5763 0.35205,0.63782 0,0.23268 -0.4375,0.45572 -0.71879,0.36644 -0.0733,-0.0233 -0.42897,-0.40528 -0.79035,-0.84892 -0.36138,-0.44362 -0.73515,-0.87894 -0.83061,-0.96735 -0.1663,-0.15403 -0.18259,-0.15645 -0.38927,-0.0579 -0.11859,0.0566 -0.46807,0.26567 -0.77653,0.46467 -0.30847,0.19899 -0.6584,0.41225 -0.77765,0.47392 -0.11927,0.0616 -0.20168,0.13657 -0.18319,0.16651 0.0185,0.0299 0.0936,0.42284 0.16702,0.87317 0.15221,0.93409 0.3074,1.46811 0.58846,2.02489 0.24264,0.48067 0.33015,0.87646 0.19376,0.87646 -0.0517,0 -0.53615,-0.46858 -1.07657,-1.04127 -1.09104,-1.15619 -1.46652,-1.49696 -1.8151,-1.64728 -0.23587,-0.1017 -0.88697,-0.15298 -0.96404,-0.0759 -0.0377,0.0377 0.0437,0.68437 0.23725,1.8864 0.0915,0.56842 0.055,0.75764 -0.17517,0.90851 -0.14274,0.0935 -0.20415,0.0995 -0.35962,0.0351 -0.30034,-0.12435 -0.36747,-0.2432 -0.71695,-1.26863 -0.45937,-1.34786 -0.37878,-1.24734 -0.90016,-1.12261 l -0.4328,0.10349 -0.22502,0.69785 c -0.31007,0.96167 -0.43813,1.62615 -0.4827,2.50479 -0.0262,0.51637 -0.0671,0.77827 -0.13176,0.84294 -0.11585,0.11584 -0.21368,0.12037 -0.24271,0.011 z m 0.15663,-2.55232 c 0.0321,-0.16889 0.0902,-0.39082 0.12915,-0.49319 0.10926,-0.28712 0.0877,-0.64594 -0.0449,-0.74661 -0.14593,-0.11076 -0.43459,-0.11529 -0.73908,-0.011 -0.12984,0.0442 -0.24657,0.087 -0.25941,0.095 -0.0123,0.008 0.0507,0.17263 0.14098,0.36586 0.0903,0.19322 0.24928,0.61457 0.35313,0.93635 l 0.1888,0.58502 0.0865,-0.21184 c 0.0475,-0.11653 0.11269,-0.35004 0.14478,-0.51892 z m -6.10916,-0.47562 c 0.13231,-0.48909 0.25474,-0.93754 0.27222,-0.99656 0.0349,-0.11804 -0.26732,-0.25633 -0.56017,-0.25633 -0.16317,0 -0.16413,0.004 -0.12188,0.44627 0.0233,0.24544 0.0616,0.73694 0.0848,1.0922 0.0232,0.35527 0.0518,0.63642 0.0634,0.62481 0.011,-0.011 0.1293,-0.42129 0.26158,-0.91039 z m 8.95811,-0.73137 c -0.3209,-2.08037 -0.40219,-3.36516 -0.27654,-4.37032 0.0552,-0.44181 0.0895,-0.49125 0.2812,-0.40571 0.13801,0.0616 0.14293,0.10321 0.15549,1.31612 0.011,1.02781 0.0911,1.89383 0.18472,1.98741 0.0362,0.0364 1.08928,-0.29051 1.56803,-0.48669 0.71582,-0.29332 1.99038,-0.91567 2.17218,-1.06067 0.14925,-0.119 0.1525,-0.13967 0.0784,-0.49679 -0.092,-0.44331 -0.40076,-1.08611 -0.621,-1.29301 -0.0867,-0.0815 -0.37734,-0.26011 -0.64572,-0.39687 -0.58577,-0.29849 -0.64315,-0.44884 -0.15934,-0.41737 0.2884,0.0188 0.40999,0.0807 0.99287,0.50544 1.31039,0.95497 2.4123,2.05866 3.06723,3.07225 0.15127,0.23409 0.29406,0.44234 0.31728,0.46279 0.0582,0.0512 0.0277,-0.003 -0.42405,-0.7562 -0.7874,-1.31243 -1.46938,-2.90492 -1.76261,-4.11593 -0.16605,-0.68579 -0.27908,-1.40452 -0.22087,-1.40452 0.0181,0 0.14217,0.26034 0.27579,0.57851 0.13368,0.31817 0.27007,0.63798 0.30321,0.7107 0.0611,0.13396 0.67633,1.74955 0.75116,1.97239 0.0369,0.11008 0.0645,0.1024 0.29948,-0.0837 0.47378,-0.37524 1.66832,-1.76525 1.78838,-2.08102 0.0358,-0.0941 0.1076,-0.17125 0.15945,-0.17125 0.0519,0 0.126,-0.0907 0.16458,-0.20149 0.0553,-0.15854 0.0458,-0.26778 -0.0441,-0.51239 -0.0963,-0.26198 -0.16619,-0.33756 -0.44386,-0.48051 -0.31439,-0.16187 -0.43982,-0.34295 -0.31931,-0.46103 0.0784,-0.0769 0.65169,0.13819 1.41856,0.5321 0.58274,0.29934 0.77358,0.35115 0.59436,0.16137 -0.0911,-0.0966 -0.45462,-1.04378 -0.56729,-1.47859 -0.126,-0.48624 -0.1293,-0.73289 -0.01,-0.73289 0.14285,0 0.21486,0.12833 0.37099,0.66113 0.0799,0.27273 0.16517,0.51703 0.18949,0.54293 0.0243,0.0259 0.71835,-0.61377 1.54229,-1.42144 1.93262,-1.89445 2.1746,-2.25942 2.60572,-3.93023 0.22174,-0.85936 0.233,-0.95421 0.20227,-1.70338 -0.0478,-1.16439 -0.39182,-2.25992 -1.23869,-3.94427 -0.4419,-0.8789 -0.7737,-0.88115 -1.2105,-0.008 -0.095,0.18968 -0.17257,0.35678 -0.17257,0.37128 0,0.0145 0.17242,0.0892 0.38317,0.16612 0.47392,0.17279 0.88384,0.51548 1.0655,0.89075 0.10472,0.21632 0.13804,0.41285 0.13804,0.81423 0,0.6214 -0.12395,1.09246 -0.43543,1.65469 -0.28162,0.50837 -0.29539,0.89013 -0.0604,1.67514 0.18847,0.62974 0.20409,0.97155 0.073,1.59827 -0.17905,0.85578 -0.64152,1.44095 -1.45548,1.84165 -0.74491,0.36674 -1.56417,0.38794 -2.15514,0.0557 -0.46274,-0.26007 -0.81212,-0.0367 -1.12431,0.71893 -0.34892,0.84449 -0.57706,0.9678 -0.50441,0.2726 0.0493,-0.47187 0.37369,-1.33564 0.63924,-1.70221 l 0.19575,-0.27023 -0.17041,-0.6128 c -0.26512,-0.95337 -0.42416,-1.43957 -0.60736,-1.85681 -0.15546,-0.35407 -0.18238,-0.3812 -0.33965,-0.34219 -0.22113,0.0549 -0.42947,0.25033 -0.70407,0.66064 -0.47216,0.70549 -0.86527,1.22021 -1.10191,1.44277 -0.25453,0.23938 -0.65733,0.41682 -0.77755,0.34253 -0.0688,-0.0426 0.27414,-0.51434 0.79296,-1.09112 0.69411,-0.77166 1.46358,-2.14484 1.7412,-3.10731 0.35553,-1.23255 0.36481,-1.93679 0.0371,-2.81288 -0.3493,-0.93358 -1.68311,-1.73095 -3.54675,-2.12028 -0.55426,-0.11585 -0.67337,-0.21665 -0.41755,-0.35356 0.0703,-0.0376 0.28206,-0.0685 0.47051,-0.0685 0.32301,0 0.34033,-0.008 0.30285,-0.14874 -0.0218,-0.0818 -0.0745,-0.3942 -0.11694,-0.6942 -0.0836,-0.59106 -0.11488,-0.6215 -0.45706,-0.44455 l -0.19505,0.10088 v -0.32027 c 0,-1.32297 1.21457,-2.85827 3.45461,-4.36683 0.7747,-0.52173 0.8902,-0.52169 0.51216,1.9e-4 -0.10912,0.1506 -0.19833,0.32579 -0.19833,0.38933 0,0.0635 0.29717,0.51842 0.66039,1.01088 0.65374,0.88635 1.46582,2.12461 1.71957,2.62199 0.15477,0.30336 0.0996,0.36448 -0.24322,0.2698 -0.13478,-0.0372 -0.25369,-0.059 -0.2642,-0.0486 -0.011,0.011 0.01,0.1201 0.0453,0.24362 0.14935,0.52073 0.20996,1.30776 0.13698,1.77831 -0.0862,0.55584 -0.23934,1.03087 -0.40974,1.27123 -0.0684,0.0965 -0.12436,0.20591 -0.12436,0.24308 0,0.0372 -0.12311,0.24608 -0.2737,0.46422 -0.29055,0.42107 -0.30424,0.49419 -0.22438,1.19977 0.0351,0.31083 0.0189,0.55591 -0.0585,0.88572 -0.0589,0.25079 -0.0955,0.46763 -0.0813,0.48186 0.0143,0.0143 0.15553,-0.073 0.31399,-0.19384 0.17022,-0.12984 0.49803,-0.52985 0.80124,-0.97772 0.56741,-0.83814 1.1279,-1.4522 1.32548,-1.4522 0.0968,0 0.11667,-0.0285 0.0802,-0.11571 -0.32144,-0.76853 -0.32698,-0.81713 -0.33843,-2.96587 -0.01,-1.9113 -0.0668,-2.73243 -0.22319,-3.23222 -0.0342,-0.10912 -0.15489,-0.50978 -0.2684,-0.89045 -0.11351,-0.38066 -0.36712,-1.06739 -0.56359,-1.52605 -0.19646,-0.45866 -0.3572,-0.85379 -0.3572,-0.87807 0,-0.0863 0.31574,-0.0426 0.39668,0.055 0.11104,0.13382 0.19833,0.12503 0.19833,-0.02 0,-0.26256 0.38559,-0.86675 0.88538,-1.38735 l 0.527,-0.54894 -0.6566,0.32732 c -0.78717,0.39241 -1.25474,0.53819 -1.72622,0.53819 -0.31231,0 -0.38153,-0.0272 -0.62184,-0.2443 -0.14871,-0.13438 -0.451,-0.47776 -0.67174,-0.7631 -0.22074,-0.28534 -0.42457,-0.49523 -0.45295,-0.46642 -0.0839,0.0851 -0.37863,1.16527 -0.56852,2.08301 -0.26699,1.29033 -0.46071,1.42852 -0.43459,0.30999 0.0188,-0.80352 0.20807,-1.76076 0.54741,-2.76809 0.20384,-0.60507 0.22802,-0.7216 0.11708,-0.56423 -0.24359,0.34568 -0.92841,0.97177 -1.38967,1.27049 -0.45391,0.29396 -1.20439,0.61373 -1.44036,0.61373 -0.19401,0 -0.15842,-0.12298 0.0726,-0.25099 0.66239,-0.36691 1.44781,-0.93001 1.8293,-1.31149 l 0.43886,-0.43887 -0.1614,-0.13094 c -0.0888,-0.0719 -0.50377,-0.33353 -0.9222,-0.58123 -0.78544,-0.46494 -1.10341,-0.72857 -1.02728,-0.85174 0.0619,-0.10006 0.27895,-0.0881 0.45161,0.0248 l 0.14643,0.0958 0.01,-0.50902 c 0.005,-0.27996 0.0703,-0.7435 0.14424,-1.03009 0.074,-0.28659 0.11255,-0.49484 0.0859,-0.46279 -0.0268,0.0321 -0.18086,0.23433 -0.34257,0.44951 -0.1617,0.21518 -0.49729,0.5662 -0.74573,0.78007 -0.44546,0.38345 -0.45598,0.3882 -0.7603,0.34406 -0.36827,-0.0534 -0.89993,-0.24918 -1.6639,-0.61263 l -0.56196,-0.26734 -0.0416,0.4426 c -0.0228,0.24344 -0.0163,0.88887 0.0143,1.4343 0.0308,0.54544 0.0568,1.02552 0.0581,1.06684 0.003,0.10569 -0.37822,0.14969 -0.50356,0.0581 -0.12806,-0.0936 -0.23377,-1.64327 -0.24589,-3.6041 l -0.008,-1.28921 -0.20768,0.82641 c -0.41394,1.6472 -0.85407,2.47696 -1.57815,2.97514 -0.31498,0.21671 -0.46169,0.16417 -0.22846,-0.0818 0.23291,-0.24564 0.51943,-0.6852 0.65921,-1.01131 0.20878,-0.48703 0.46689,-1.44059 0.40634,-1.50115 -0.0305,-0.0305 -0.42457,-0.13108 -0.8759,-0.22362 -0.91065,-0.1868 -1.27374,-0.34986 -1.48827,-0.66836 -0.19864,-0.2949 -0.36648,-1.02824 -0.418,-1.82623 l -0.0432,-0.67076 -0.0548,0.56194 c -0.11955,1.22717 -0.42612,1.988 -0.91716,2.27572 -0.35719,0.20928 -0.97012,0.36881 -1.41703,0.36881 -0.33838,0 -0.34961,0.005 -0.34591,0.18181 0.005,0.24404 0.18728,0.87952 0.51861,1.8091 0.29804,0.83617 0.30758,1.10377 0.0301,0.84302 -0.35383,-0.3324 -0.70892,-1.13901 -1.33488,-3.03227 -0.22242,-0.6727 -0.44861,-1.37185 -0.50263,-1.55366 -0.0541,-0.18181 -0.0847,-0.24131 -0.0681,-0.13217 0.0166,0.10911 0.0582,0.63159 0.0926,1.16112 0.0638,0.98363 0.0176,1.86592 -0.12984,2.47509 -0.0845,0.3494 -0.44888,1.16565 -0.61963,1.38837 -0.0966,0.126 -0.10143,0.12065 -0.10349,-0.11502 -9.6e-4,-0.13602 0.056,-0.46321 0.1271,-0.72723 0.10939,-0.40671 0.26754,-1.51204 0.26754,-1.87029 0,-0.0706 -0.0389,-0.0943 -0.11571,-0.0708 -0.0637,0.0195 -0.39123,0.0684 -0.728,0.10856 -0.74386,0.0889 -1.40671,0.005 -1.91218,-0.23886 -0.43221,-0.20951 -0.9249,-0.75125 -1.20422,-1.32413 -0.11721,-0.24042 -0.22597,-0.42433 -0.24163,-0.40866 -0.0156,0.0156 0.0792,0.33862 0.21079,0.71767 0.42249,1.21671 0.3234,1.97734 -0.31811,2.44205 -0.14991,0.10857 -0.31098,0.19745 -0.35792,0.19745 -0.0469,0 -0.10294,0.0285 -0.12449,0.0633 -0.067,0.10829 0.70307,1.26321 1.17741,1.76595 0.48957,0.51889 0.53109,0.69956 0.11159,0.48555 -0.7081,-0.36124 -1.49029,-1.36746 -2.41611,-3.10811 -0.56061,-1.05398 -0.82493,-1.5206 -0.8614,-1.5206 -0.0292,0 0.0504,0.22299 0.52784,1.47724 0.52943,1.39094 0.76656,2.35002 0.81189,3.28385 0.0317,0.6538 0.0217,0.77393 -0.0712,0.85104 -0.1946,0.1615 -0.28374,-0.0124 -0.32696,-0.6371 -0.0331,-0.4781 -0.29941,-1.6807 -0.39295,-1.77424 -0.014,-0.0141 -0.24663,0.18383 -0.51682,0.43977 -1.20238,1.13905 -1.6676,1.2337 -2.75353,0.56027 l -0.27892,-0.17297 0.2377,0.50052 c 0.39089,0.82311 0.36948,1.32006 -0.0755,1.75133 l -0.22786,0.22083 0.74714,0.34785 c 0.4109,0.19132 0.85062,0.36727 0.97714,0.391 0.35409,0.0664 0.4313,0.13108 0.31864,0.26683 -0.119,0.14344 -0.57142,0.0976 -1.22255,-0.12395 -0.65881,-0.22413 -1.0508,-0.43625 -2.00226,-1.08347 -1.74025,-1.1838 -2.20258,-1.47541 -2.27159,-1.43275 -0.0408,0.0253 0.4908,0.59744 1.24534,1.34081 1.28092,1.26197 1.91099,1.99572 2.3741,2.7648 0.24456,0.40612 0.27624,0.58697 0.13629,0.7783 -0.0839,0.11475 -0.11461,0.0965 -0.46654,-0.27849 -0.44554,-0.47454 -0.78131,-0.61239 -1.4917,-0.61239 -0.34882,0 -0.54061,0.0362 -0.74594,0.14102 -0.58381,0.29784 -1.28779,0.22715 -2.45661,-0.24664 -0.21521,-0.0873 -0.40421,-0.14569 -0.41999,-0.12998 -0.0158,0.0158 0.22996,0.30165 0.5461,0.63523 1.12997,1.19235 1.17127,1.3287 0.83003,2.74068 -0.14062,0.5818 -0.24562,1.06801 -0.23333,1.08047 0.0473,0.0482 1.27253,0.20782 1.59796,0.20826 0.35843,3.3e-4 0.68196,0.0889 0.68196,0.18657 0,0.10582 -0.32018,0.20412 -0.80972,0.24848 -0.89738,0.0814 -2.05678,-0.15429 -3.45113,-0.7013 -0.36174,-0.14191 -0.66708,-0.24867 -0.67852,-0.2372 -0.011,0.011 0.43327,0.32267 0.98826,0.69161 0.555,0.36894 1.23116,0.8574 1.50258,1.08548 0.82368,0.69213 1.6017,1.73191 1.49803,2.00205 -0.0361,0.0942 -0.0609,0.0906 -0.2152,-0.0307 -0.0959,-0.0755 -0.20247,-0.13712 -0.23681,-0.13712 -0.0343,0 -0.19399,-0.13163 -0.35484,-0.29242 -0.29268,-0.2927 -0.67833,-0.47838 -0.85374,-0.41107 -0.0513,0.0198 -0.16718,0.14886 -0.25742,0.28702 -0.20252,0.31002 -0.30342,0.98247 -0.30872,2.05756 -0.004,0.84011 -0.0622,1.30758 -0.15999,1.28923 -0.10446,-0.0196 -0.24443,-0.4966 -0.25328,-0.86281 -0.008,-0.33483 -0.0124,-0.34257 -0.14273,-0.24809 -0.37268,0.27045 -0.68453,0.3846 -1.13032,0.41372 l -0.46704,0.0305 -0.39243,-0.31795 c -0.21583,-0.17488 -0.73756,-0.6413 -1.1594,-1.0365 -1.37033,-1.28378 -2.01485,-1.67713 -2.9127,-1.77758 -0.85953,-0.0962 -1.97725,0.16536 -1.97047,0.46106 10e-4,0.0604 0.15058,0.26854 0.33155,0.46256 l 0.32902,0.35278 0.57751,-0.0774 c 0.5792,-0.0775 1.39147,-0.0685 1.20559,0.0137 -0.0546,0.024 -0.419,0.10912 -0.8099,0.18896 -0.39089,0.0799 -0.7107,0.16881 -0.7107,0.19765 0,0.11584 0.37069,0.48275 0.57327,0.56739 0.14604,0.0611 0.50376,0.0902 1.10618,0.0902 0.81471,0 1.31085,0.0729 1.20645,0.17733 -0.0228,0.0228 -0.47067,0.0442 -0.99532,0.0478 -0.52464,0.004 -0.97456,0.027 -0.9998,0.0521 -0.0253,0.0253 0.12641,0.24835 0.3369,0.49585 0.21055,0.24749 0.49979,0.63593 0.64276,0.86318 l 0.25994,0.41321 0.63722,0.003 c 0.42739,10e-4 0.69164,0.0335 0.8025,0.0968 0.15109,0.0863 0.10432,0.0947 -0.54543,0.0969 -0.6459,0.003 -0.71072,0.0137 -0.71072,0.12435 0,0.26389 0.22111,0.35669 0.85702,0.35967 0.3286,0.001 0.59747,0.0143 0.59747,0.0284 0,0.0744 -0.49832,0.21719 -0.75819,0.21719 -0.16478,0 -0.29962,0.0137 -0.29962,0.0302 0,0.0166 0.21082,0.43312 0.46849,0.92557 0.53209,1.01694 0.54095,1.02264 1.12845,0.72492 0.22207,-0.11255 0.35866,-0.14821 0.40187,-0.105 0.0776,0.0775 -0.3453,0.37532 -0.6323,0.44524 -0.10294,0.0251 -0.20245,0.0854 -0.22115,0.13409 -0.0446,0.11612 0.17477,0.68779 0.26391,0.68779 0.038,0 0.25795,-0.12312 0.48884,-0.27351 0.23087,-0.15043 0.43858,-0.25469 0.46157,-0.2317 0.0383,0.0383 -0.0439,0.11831 -0.66432,0.64754 -0.22858,0.19499 -0.23188,0.13643 0.0659,1.16689 l 0.10129,0.35059 0.24222,-0.17872 c 0.13327,-0.0983 0.36866,-0.29945 0.5232,-0.447 0.31749,-0.30314 0.38295,-0.20905 0.0881,0.12669 -0.10609,0.12078 -0.21761,0.26152 -0.24792,0.31272 -0.0303,0.0512 -0.18286,0.17684 -0.33902,0.27917 -0.20053,0.13136 -0.27178,0.21689 -0.24256,0.29103 0.0228,0.0578 0.0582,0.32065 0.0786,0.58426 0.0204,0.26364 0.0641,0.47932 0.097,0.47932 0.10198,0 0.40157,-0.17618 0.76889,-0.45221 0.67299,-0.50573 1.1778,-1.33246 1.36765,-2.23985 0.0959,-0.45828 0.21104,-0.61276 0.45821,-0.6146 0.30137,-0.003 0.33625,-0.085 0.24942,-0.59133 -0.10857,-0.63283 -0.1013,-0.82154 0.0383,-0.99382 0.10994,-0.13589 0.12518,-0.13836 0.21106,-0.0349 0.0509,0.0614 0.10527,0.28799 0.12092,0.5037 0.0156,0.21568 0.052,0.40677 0.0808,0.42461 0.14092,0.087 0.48973,-0.36426 0.82901,-1.07271 0.3616,-0.75505 0.50186,-0.89011 0.54501,-0.52478 0.0346,0.29304 -0.16908,0.78724 -0.55016,1.3347 l -0.35841,0.51493 0.37761,0.12655 c 0.59117,0.19819 0.93931,0.44317 0.93945,0.66105 6e-5,0.10541 -0.0361,0.1818 -0.0861,0.1818 -0.0474,0 -0.33223,-0.119 -0.633,-0.26445 -0.56971,-0.27551 -0.93369,-0.34052 -0.93369,-0.16679 0,0.19666 0.33705,0.98496 0.69003,1.61387 0.19926,0.35503 0.39453,0.73032 0.43395,0.83396 0.0708,0.18616 0.0791,0.1771 0.68039,-0.74141 0.33482,-0.51142 0.78727,-1.21686 1.00543,-1.56763 0.39338,-0.63242 0.39764,-0.63656 0.51238,-0.49588 0.0637,0.078 0.1157,0.19999 0.1157,0.27103 0,0.24731 -0.29112,0.81942 -0.77672,1.52641 l -0.48878,0.71159 0.33052,-0.13026 c 0.67317,-0.26534 1.15775,-0.47945 1.3082,-0.57803 0.18062,-0.11831 0.48624,-0.0682 0.48624,0.0797 0,0.0538 -0.0331,0.0979 -0.0737,0.0979 -0.15478,0 -1.15576,0.64339 -1.51572,0.97425 -0.20715,0.1904 -0.48966,0.51028 -0.6278,0.71087 l -0.25118,0.3647 0.22333,0.31387 c 0.85304,1.19896 1.53791,1.97335 2.22007,2.51023 l 0.27057,0.21295 0.34068,-0.71745 c 0.33545,-0.70639 0.55879,-1.42019 0.64299,-2.05494 0.0434,-0.32718 0.19436,-0.48577 0.30157,-0.31681 0.21259,0.33504 -0.35269,2.71486 -1.19013,5.01031 -0.11282,0.30907 -0.1686,0.5052 -0.12407,0.43581 0.45484,-0.70921 2.54539,-2.88884 3.04388,-3.17362 0.31467,-0.17976 0.50874,-0.18913 0.50713,-0.0246 -3.1e-4,0.0467 -0.24696,0.34089 -0.54782,0.65398 -0.48845,0.50833 -0.87909,1.08978 -0.99874,1.48661 -0.0344,0.11447 0.0246,0.18216 0.3396,0.38919 0.20975,0.13783 0.57475,0.40696 0.8111,0.59806 0.51238,0.41426 0.9713,0.69098 1.42144,0.85713 0.18181,0.0671 0.3794,0.16327 0.43908,0.21373 0.0953,0.0806 0.12586,0.0674 0.25037,-0.10747 0.078,-0.10953 0.20517,-0.34181 0.28259,-0.51614 0.14448,-0.32526 0.14791,-0.41083 0.0946,-2.36044 -0.0233,-0.85354 0.33188,6.5e-4 0.51985,1.25015 0.20453,1.35951 0.1976,1.72813 -0.0721,3.83456 l -0.0339,0.26445 0.11392,-0.19835 c 0.0627,-0.10912 0.29654,-0.66083 0.51966,-1.2261 0.46793,-1.18557 0.89249,-1.99231 1.32031,-2.50881 0.16545,-0.19973 0.30081,-0.38567 0.30081,-0.41321 0,-0.0924 0.11763,-0.0512 0.15856,0.0555 0.0243,0.0633 -0.21099,0.60829 -0.58795,1.36196 -0.34563,0.69105 -0.62842,1.29296 -0.62842,1.3376 0,0.095 1.76653,0.67069 3.05358,0.9951 l 0.88015,0.22183 0.0458,-0.24248 c 0.12559,-0.66553 -0.005,-1.69279 -0.34174,-2.68584 -0.174,-0.51322 -0.18817,-0.6048 -0.10637,-0.68665 0.0818,-0.0818 0.13602,-0.0123 0.40625,0.5261 0.78224,1.55677 1.3874,3.51854 1.42526,4.62037 0.004,0.12724 0.0475,-0.15537 0.096,-0.62808 0.0983,-0.96062 0.37583,-2.64815 0.54536,-3.31661 0.0866,-0.3415 0.14459,-0.45069 0.26201,-0.4934 0.12449,-0.0453 0.1642,-0.0254 0.22766,0.11392 0.0633,0.13897 0.0299,0.42482 -0.18948,1.62123 -0.17279,0.94226 -0.24268,1.46714 -0.19896,1.49417 0.12271,0.0759 1.84569,0.0292 2.81032,-0.0759 0.52205,-0.057 0.96516,-0.10362 0.98471,-0.10362 0.0195,0 0.0191,-0.2157 -9.6e-4,-0.47933 -0.045,-0.58891 -0.22424,-1.05732 -0.64882,-1.69567 -0.17894,-0.26902 -0.32535,-0.53874 -0.32535,-0.59939 0,-0.0607 -0.10418,-0.20244 -0.23138,-0.31512 -0.25983,-0.23003 -0.27838,-0.29319 -0.12381,-0.42151 0.0943,-0.0782 0.1491,-0.0443 0.44143,0.27289 0.83381,0.90481 1.39831,2.04678 2.10236,4.25299 0.22765,0.71335 0.4242,1.28671 0.43678,1.27412 0.0124,-0.0123 -0.0661,-0.59968 -0.17486,-1.30467 z m -3.87165,-2.19086 c -0.0158,-0.0454 -0.0733,-0.28073 -0.12779,-0.52282 -0.25454,-1.12938 -1.12355,-3.32095 -1.46758,-3.70111 -0.15933,-0.17607 -0.053,-0.27322 0.1719,-0.15696 0.32116,0.16609 0.87863,1.18633 1.22251,2.2374 0.24065,0.73553 0.25012,0.73064 0.36219,-0.18701 0.18577,-1.52122 0.29952,-2.01643 0.46315,-2.01643 0.0382,0 0.0918,0 0.11914,0 0.0887,0 0.062,0.417 -0.0656,1.02474 -0.14812,0.70575 -0.25517,2.14728 -0.1871,2.51955 0.034,0.18632 0.0225,0.28761 -0.0397,0.34563 -0.0483,0.0452 -0.0878,0.14932 -0.0878,0.23152 0,0.24879 -0.29245,0.43031 -0.36329,0.22549 z m 5.47184,-1.38838 c -0.14214,-0.22727 -0.35942,-0.59172 -0.48282,-0.80988 -0.46955,-0.83016 -1.12254,-1.74413 -1.63129,-2.28323 -0.29046,-0.3078 -0.56306,-0.62585 -0.60576,-0.70676 -0.0692,-0.13108 -0.0597,-0.15164 0.0877,-0.18862 0.13341,-0.0335 0.20048,10e-4 0.34769,0.18019 0.10033,0.12188 0.33382,0.3853 0.51886,0.58528 0.62757,0.67828 1.22392,1.39315 1.29828,1.55638 0.0843,0.18484 0.21294,0.22308 0.15776,0.0468 -0.0642,-0.20509 -0.22881,-1.15297 -0.3344,-1.92573 -0.0566,-0.41372 -0.11983,-0.82002 -0.14061,-0.9029 -0.0207,-0.0829 -0.004,-0.21294 0.0362,-0.28904 0.0806,-0.15063 0.26774,-0.18931 0.26774,-0.0553 0,0.39368 0.25284,2.03427 0.52654,3.41643 0.18311,0.92475 0.33292,1.7057 0.33292,1.73546 0,0.15095 -0.14687,0.0123 -0.37882,-0.3591 z m -10.71426,0.13218 c -0.041,-0.0818 -0.12024,-0.46827 -0.17606,-0.85878 -0.17754,-1.2421 -0.36192,-1.96869 -0.61983,-2.44248 -0.2485,-0.45649 -0.25197,-0.56009 -0.0163,-0.48529 0.30793,0.0977 0.48044,0.46634 0.7644,1.63321 l 0.27423,1.12697 0.31905,-0.78428 c 0.3395,-0.8346 0.56047,-1.29984 0.71551,-1.50647 0.0928,-0.12353 0.0985,-0.12243 0.20521,0.0403 0.1061,0.16199 0.10184,0.18164 -0.12971,0.58995 -0.27053,0.47703 -0.48897,1.01169 -0.8546,2.09174 -0.13849,0.40906 -0.28678,0.74377 -0.32955,0.74377 -0.0428,0 -0.11131,-0.067 -0.15231,-0.14876 z m -5.39518,-2.55068 c -0.0187,-0.0302 0.01,-0.21613 0.0618,-0.4132 0.22478,-0.84113 0.37458,-1.79889 0.39728,-2.54004 0.0191,-0.62495 0.0446,-0.79763 0.11996,-0.81352 0.22933,-0.0483 0.30622,1.07116 0.14216,2.06967 -0.0538,0.32726 -0.0983,0.62 -0.099,0.65054 -6.5e-4,0.0305 0.11515,-0.0915 0.2572,-0.27133 0.28457,-0.36 1.00448,-1.01833 1.3302,-1.21642 0.12147,-0.0738 0.26194,-0.10953 0.3372,-0.0856 0.11186,0.0356 0.0914,0.0675 -0.15462,0.24194 -0.43242,0.30651 -0.88466,0.7642 -1.26075,1.27597 -0.7312,0.995 -1.02242,1.27863 -1.13153,1.10207 z m 21.41369,-1.14222 c -0.14545,-0.1087 -0.56402,-0.47598 -0.93013,-0.81621 -0.78515,-0.72959 -1.37226,-1.12589 -1.89603,-1.27979 -0.26878,-0.0789 -0.38016,-0.14445 -0.38023,-0.2235 -10e-5,-0.17092 0.0804,-0.18739 0.44525,-0.0911 0.39387,0.1039 1.69444,0.77797 1.93834,1.00462 0.0929,0.0863 0.18977,0.15695 0.21529,0.15695 0.0255,0 -0.17529,-0.44258 -0.44621,-0.98353 -0.46945,-0.93732 -0.48913,-0.99476 -0.41906,-1.22307 0.0999,-0.32546 0.21627,-0.30096 0.35373,0.0745 0.2351,0.64206 0.55518,1.39827 0.98327,2.32301 0.24378,0.52659 0.43138,1.01917 0.42027,1.1035 l -0.02,0.15231 z m -14.40213,-0.40202 c -0.0534,-0.0841 -0.11859,-0.31648 -0.14475,-0.51647 -0.0722,-0.5511 -0.18704,-0.87245 -0.45699,-1.27914 -0.13492,-0.20335 -0.22833,-0.3974 -0.20742,-0.43121 0.0209,-0.0338 0.13826,-0.0615 0.2608,-0.0615 h 0.22282 l 0.24895,0.79759 0.24894,0.79759 0.12092,-0.3187 c 0.12655,-0.33338 0.43657,-0.71479 0.5327,-0.65538 0.1098,0.0678 0.0534,0.39673 -0.10926,0.63602 -0.0909,0.13382 -0.16528,0.26263 -0.16528,0.28634 0,0.0237 -0.042,0.13684 -0.0932,0.25142 -0.0513,0.11461 -0.1201,0.29573 -0.15289,0.40254 -0.077,0.25075 -0.18362,0.28249 -0.30533,0.0909 z m 4.42294,-0.43116 c -0.40228,-0.55902 -0.80755,-0.99217 -1.04516,-1.11706 -0.10006,-0.0526 -0.1818,-0.13942 -0.1818,-0.19303 0,-0.22674 0.38383,-0.0283 0.9666,0.49991 0.2393,0.21686 0.46185,0.3943 0.49454,0.3943 0.0327,0 0.0598,-0.21569 0.0604,-0.47932 9.7e-4,-0.52057 0.0973,-0.79516 0.29168,-0.8326 0.11379,-0.0218 0.11983,0.005 0.0734,0.32997 -0.0279,0.19464 -0.0615,0.68114 -0.0747,1.08112 -0.0308,0.92938 -0.11228,0.97356 -0.58501,0.31671 z m 5.68776,-0.41652 c -0.17769,-0.16328 -0.61183,-0.62413 -0.96475,-1.02412 -0.44953,-0.50947 -0.76104,-0.79746 -1.04036,-0.96176 -0.34994,-0.20585 -0.38863,-0.24829 -0.31638,-0.34709 0.0453,-0.0619 0.11172,-0.11254 0.14779,-0.11254 0.12079,0 0.90689,0.64328 1.40582,1.15047 0.27181,0.27629 0.51443,0.50236 0.53917,0.50236 0.0247,0 0.003,-0.16184 -0.049,-0.35962 -0.0863,-0.33058 -0.28892,-1.54648 -0.28983,-1.73947 -1.9e-4,-0.0454 0.0592,-0.0826 0.1319,-0.0826 0.0728,0 0.13218,0.0137 0.13218,0.0302 0,0.23774 0.37885,2.1153 0.50392,2.49746 0.23897,0.73013 0.20072,0.81535 -0.20049,0.44672 z m -14.01409,-0.0778 c -0.0191,-0.15685 -0.0505,-0.51581 -0.07,-0.7977 -0.0194,-0.28188 -0.0769,-0.61193 -0.12765,-0.73346 -0.088,-0.2107 -0.11598,-0.22478 -0.6024,-0.30323 -0.77605,-0.12518 -1.58834,-0.37769 -2.2655,-0.70422 -0.80589,-0.38859 -0.81002,-0.45374 -0.0662,-1.04515 0.29999,-0.2385 0.6256,-0.5013 0.72358,-0.58398 0.18354,-0.15488 0.3711,-0.5289 0.67667,-1.34933 0.29712,-0.79773 0.90264,-1.48888 1.47732,-1.68623 0.29338,-0.10074 1.76793,-0.11543 3.02502,-0.0302 0.79918,0.0542 0.88379,0.0486 1.17,-0.078 0.28033,-0.12394 0.57999,-0.13438 0.57999,-0.02 0,0.10006 -0.44563,0.46808 -0.69418,0.57326 -0.35995,0.15234 -1.20112,0.13821 -2.08243,-0.035 -0.87161,-0.17126 -1.11796,-0.17098 -1.4851,10e-4 -0.38832,0.18253 -0.63476,0.47653 -1.49675,1.78556 -0.51405,0.78064 -0.8672,1.23747 -1.22433,1.58377 l -0.50191,0.48666 0.14652,0.11859 c 0.0806,0.0652 0.23276,0.11859 0.33815,0.11859 0.2004,0 0.28318,-0.0928 0.72238,-0.80989 0.32285,-0.52711 0.33929,-0.34928 0.0202,0.21818 -0.16461,0.29273 -0.28274,0.57536 -0.26251,0.62807 0.021,0.0548 0.12325,0.0958 0.23856,0.0958 0.16498,0 0.24071,-0.0556 0.41528,-0.3052 0.31943,-0.45663 0.77546,-1.03887 0.77546,-0.99007 0,0.0516 -0.3409,0.69617 -0.56173,1.06213 -0.11337,0.18796 -0.13643,0.27634 -0.0811,0.31058 0.10802,0.0667 0.21938,-0.0712 0.72779,-0.90152 0.24415,-0.39869 0.44391,-0.70297 0.44391,-0.67618 0,0.0268 -0.12271,0.29264 -0.27255,0.59078 -0.14991,0.29815 -0.31121,0.65164 -0.35845,0.78553 -0.081,0.22936 -0.0775,0.2457 0.0577,0.28197 0.46153,0.12381 0.70908,-0.0391 1.03226,-0.67933 0.11228,-0.22235 0.21645,-0.40427 0.23156,-0.40427 0.0375,0 -0.0553,0.30905 -0.18606,0.61963 -0.16538,0.39279 -0.14815,0.46245 0.0845,0.34209 0.2806,-0.1451 0.57042,-0.52324 0.88534,-1.15512 0.35669,-0.71573 0.40422,-0.5216 0.0548,0.22397 -0.19998,0.42674 -0.23594,0.54923 -0.14737,0.50183 0.15307,-0.0819 0.51866,-0.53148 0.83562,-1.02754 0.31226,-0.4887 0.76522,-0.97937 1.08113,-1.17114 0.13121,-0.0796 0.39995,-0.27488 0.59733,-0.43395 0.40522,-0.32653 0.79873,-0.54428 0.98354,-0.54428 0.15251,0 0.37273,0.22967 0.31296,0.32639 -0.0239,0.0387 -0.10198,0.0703 -0.17364,0.0703 -0.19569,0 -0.83858,0.35011 -1.26225,0.68742 -0.40065,0.31895 -0.71752,0.68965 -1.50871,1.76497 -0.27271,0.37066 -0.6446,0.79302 -0.82641,0.93858 -0.37948,0.30382 -0.91954,0.57423 -1.14871,0.57518 -0.14186,6.4e-4 -0.15285,0.0214 -0.11379,0.2155 0.0238,0.11818 0.0765,0.41569 0.11708,0.66113 0.0406,0.24545 0.0983,0.44627 0.12792,0.44627 0.0297,0 0.174,-0.17677 0.32071,-0.39282 0.26784,-0.39439 0.4882,-0.59887 0.64542,-0.59887 0.12009,0 0.105,0.19462 -0.0188,0.24213 -0.0568,0.0218 -0.32008,0.32588 -0.58502,0.67572 -0.65252,0.86163 -0.68177,0.88278 -0.72532,0.52431 z m -7.11494,-1.2959 c 0,-0.0649 0.1517,-0.26581 0.3371,-0.44626 0.76581,-0.74533 2.04297,-2.66229 2.04297,-3.0664 0,-0.17007 0.11337,-0.23551 0.23429,-0.13519 0.23437,0.19449 -0.041,1.00862 -0.5829,1.72316 -0.77477,1.02166 -0.80587,1.06953 -0.6682,1.02844 0.0684,-0.0205 0.21354,-0.0581 0.32263,-0.0837 0.10912,-0.0257 0.50831,-0.16271 0.88716,-0.30452 l 0.68883,-0.25783 0.16503,0.16503 0.16502,0.16504 -0.19272,-0.003 c -0.30876,-0.003 -1.63831,0.51651 -2.75314,1.07601 -0.57752,0.28986 -0.64607,0.30453 -0.64607,0.13825 z m 12.89437,-0.47249 c -0.0376,-0.0703 -0.0686,-0.21165 -0.0689,-0.31404 -2e-4,-0.10239 -0.0489,-0.2754 -0.10816,-0.38449 -0.29794,-0.54825 -0.30571,-0.57086 -0.22388,-0.65019 0.0884,-0.0858 0.16199,-0.01 0.42832,0.44552 l 0.1512,0.25812 0.11571,-0.35729 c 0.1527,-0.47175 0.23972,-0.56478 0.3816,-0.40799 0.10006,0.11063 0.0876,0.15928 -0.18389,0.71276 -0.16022,0.32675 -0.29235,0.64614 -0.29364,0.70979 -0.003,0.15393 -0.1131,0.14718 -0.19835,-0.0123 z m 4.36592,-0.90578 c -0.0754,-0.0958 -0.13698,-0.20149 -0.13698,-0.23485 0,-0.0333 -0.20825,-0.28067 -0.46279,-0.54959 -0.25453,-0.26893 -0.46279,-0.52025 -0.46279,-0.55852 0,-0.16307 0.29365,-0.0475 0.59454,0.2339 0.17843,0.1669 0.35175,0.28656 0.38516,0.26591 0.0333,-0.0207 0.081,-0.16463 0.10583,-0.31998 0.0557,-0.34916 0.20035,-0.57996 0.3634,-0.57996 0.20241,0 0.20884,0.17182 0.0215,0.57661 -0.13893,0.30034 -0.17722,0.48447 -0.17902,0.86103 -0.001,0.26345 -0.0225,0.47914 -0.0471,0.47932 -0.0246,1.9e-4 -0.10651,-0.0781 -0.18182,-0.17387 z m -6.44698,-0.54686 c -0.0203,-0.0329 -0.0619,-0.24121 -0.0921,-0.46279 -0.0491,-0.35876 -0.0426,-0.40287 0.059,-0.40287 0.0666,0 0.13135,0.0689 0.15561,0.16528 0.0515,0.20513 0.14278,0.21133 0.24323,0.0166 0.0964,-0.187 0.33012,-0.44627 0.40226,-0.44627 0.13465,0 0.034,0.27305 -0.1722,0.46763 -0.12476,0.11762 -0.24612,0.29096 -0.26976,0.38515 -0.0705,0.28116 -0.23646,0.42227 -0.32603,0.27733 z m 9.59621,-1.30138 c -0.0539,-0.10294 -0.25745,-0.3089 -0.45231,-0.45778 -0.37214,-0.28435 -0.47062,-0.46722 -0.28911,-0.53688 0.0703,-0.0269 0.18369,0.0314 0.32207,0.16549 0.11749,0.11392 0.23647,0.20708 0.26438,0.20708 0.0279,0 0.042,-0.19301 0.0314,-0.42892 -0.0145,-0.32221 0.007,-0.45493 0.0852,-0.53344 0.0953,-0.0953 0.11448,-0.0302 0.21725,0.73667 0.099,0.73873 0.10088,0.85298 0.0159,0.93803 -0.0851,0.0851 -0.10884,0.0741 -0.19486,-0.0902 z m -6.41699,-1.16614 c -0.35277,-0.46066 -0.30224,-0.59882 0.0818,-0.22377 0.13451,0.13135 0.26533,0.23892 0.29059,0.23892 0.0253,0 0.0895,-0.10418 0.14259,-0.2314 0.10761,-0.25747 0.23565,-0.30705 0.23565,-0.0913 0,0.13259 -0.32272,0.71171 -0.39945,0.71688 -0.0198,10e-4 -0.17776,-0.18292 -0.35122,-0.40942 z m -12.20747,0.10006 c 0,-0.0546 0.14903,-0.26246 0.33117,-0.46176 0.18215,-0.19929 0.45528,-0.57535 0.60698,-0.83569 0.41795,-0.71726 0.53463,-0.82859 0.6013,-0.57368 0.0235,0.0899 -0.0985,0.31659 -0.38897,0.72266 -0.23278,0.3254 -0.42324,0.61925 -0.42324,0.653 0,0.0338 0.24544,0.0771 0.54544,0.0964 0.29998,0.0192 0.62801,0.0732 0.72895,0.11982 0.34799,0.16088 0.16363,0.2271 -0.65183,0.23414 -0.43331,0.004 -0.91428,0.0377 -1.06882,0.0756 -0.23649,0.0579 -0.28098,0.053 -0.28098,-0.0306 z m -4.29734,-0.26005 c 0,-0.0719 0.40554,-0.52612 0.96607,-1.08184 1.03315,-1.02428 1.68347,-1.82365 1.81282,-2.22832 0.10445,-0.32684 0.15693,-0.37702 0.26188,-0.25056 0.23481,0.28293 -0.34904,1.43194 -0.98583,1.94007 -0.26791,0.21379 -0.99713,1.04748 -0.99713,1.13999 0,0.0251 0.39419,-0.10253 0.87598,-0.28365 l 0.87601,-0.32935 0.74084,0.0232 c 0.41284,0.0123 0.77265,0.055 0.81269,0.0951 0.13067,0.13066 -0.10857,0.23695 -0.67649,0.30031 -0.63559,0.071 -2.1685,0.40161 -2.69515,0.58143 -0.19999,0.0682 -0.50493,0.14518 -0.67765,0.17091 -0.27969,0.0416 -0.31404,0.0332 -0.31404,-0.0773 z m 24.99438,-0.44848 c -0.10171,-0.12256 0.0904,-0.44462 0.23271,-0.39005 0.1153,0.0442 0.11653,0.0796 0.011,0.30582 -0.0944,0.20336 -0.13409,0.21701 -0.24425,0.0843 z m -4.74471,-0.25235 c -0.20148,-0.14242 -0.38894,-0.42902 -0.32347,-0.4945 0.0172,-0.0172 0.15386,0.0675 0.30386,0.18799 0.33151,0.26642 0.39467,0.20987 0.39618,-0.35462 6.3e-4,-0.29338 0.0236,-0.38016 0.1002,-0.38016 0.11172,0 0.1227,0.1521 0.0567,0.78366 -0.0373,0.35673 -0.0596,0.40638 -0.18274,0.40638 -0.0771,0 -0.23495,-0.067 -0.3507,-0.14875 z m -23.00413,-0.28519 c -0.0469,-0.12216 0.0776,-0.42552 0.17463,-0.42552 0.0372,0 0.0675,0.0719 0.0675,0.15986 0,0.32244 -0.15509,0.49257 -0.24216,0.26566 z m 11.32711,-0.73405 c -0.1493,-0.1493 0.0526,-0.41871 0.3138,-0.41871 0.0898,0 0.0883,0.0279 -0.0124,0.22976 -0.10994,0.22093 -0.20812,0.28244 -0.30162,0.18895 z m 9.51151,-0.92255 c -0.055,-0.36737 0.0537,-0.54414 0.16101,-0.26174 l 0.069,0.18154 0.20348,-0.17121 c 0.23644,-0.19895 0.392,-0.16197 0.21504,0.0511 -0.5025,0.60501 -0.58409,0.63021 -0.64856,0.20032 z m -17.95035,0.11008 c -0.0349,-0.0651 -0.27661,-0.19732 -0.53736,-0.29396 -0.46688,-0.17306 -0.87607,-0.20784 -1.81124,-0.15397 -0.22614,0.0137 -0.2674,-0.005 -0.28475,-0.1271 -0.0162,-0.11365 0.0306,-0.15887 0.2314,-0.224 0.45651,-0.14803 1.1698,-0.53467 1.6545,-0.89682 0.52246,-0.39035 0.61364,-0.42347 0.61364,-0.22286 0,0.18517 -0.46782,0.67499 -0.82633,0.86517 -0.16368,0.0869 -0.2976,0.17634 -0.2976,0.19892 0,0.0474 0.41131,0.12271 0.67578,0.12367 0.2751,9.6e-4 0.8861,0.29805 1.01356,0.49257 0.0624,0.0954 0.10211,0.18051 0.0881,0.1892 -0.014,0.008 -0.12243,0.05 -0.24098,0.0915 -0.18655,0.0656 -0.22398,0.06 -0.27876,-0.0424 z m 24.15642,-0.12545 c 0.0693,-0.0781 0.16692,-0.14202 0.217,-0.14202 0.0501,0 0.20166,-0.0469 0.33684,-0.10445 l 0.24581,-0.10445 -0.29598,-0.25742 c -0.16279,-0.14158 -0.37849,-0.2916 -0.47932,-0.33337 -0.1714,-0.071 -0.23285,-0.18668 -0.14554,-0.274 0.0209,-0.0207 0.22161,0.0645 0.44627,0.18944 0.43433,0.24162 0.79617,0.58045 0.75424,0.70626 -0.0399,0.11982 -0.58053,0.36836 -0.90775,0.41735 l -0.2975,0.0445 z m -17.49249,-0.2629 c -0.27926,-0.0972 -0.52601,-0.19527 -0.54831,-0.21806 -0.0224,-0.0228 0.14667,-0.21107 0.37552,-0.4184 0.33551,-0.30398 0.42075,-0.354 0.44019,-0.25837 0.0152,0.0748 -0.0696,0.19719 -0.22976,0.33173 l -0.25389,0.21314 0.16366,0.0631 c 0.5819,0.22448 0.72561,0.30011 0.72561,0.38183 0,0.12312 -0.0777,0.11214 -0.67302,-0.095 z m 5.73067,0.0332 c -0.34489,-0.13492 -0.49586,-0.2441 -0.49586,-0.35847 0,-0.13424 0.71477,-0.82552 0.7995,-0.77316 0.13053,0.0807 0.046,0.23086 -0.24114,0.42843 -0.38424,0.26437 -0.37175,0.31584 0.13094,0.53951 0.40852,0.18176 0.23278,0.33048 -0.19345,0.16369 z m 2.55677,0.0301 c -0.11406,-0.0723 0.0143,-0.59215 0.16018,-0.64811 0.15134,-0.0581 0.19336,0.0302 0.1142,0.24006 -0.0476,0.12628 -0.0497,0.21253 -0.006,0.25616 0.14263,0.14262 -0.0822,0.26987 -0.26826,0.15189 z m -5.2515,-0.83022 c -0.44327,-0.15816 -0.46136,-0.202 -0.23415,-0.56749 0.11063,-0.17806 0.25714,-0.37431 0.32545,-0.43613 0.11694,-0.10582 0.12421,-0.10582 0.12421,10e-4 0,0.0626 -0.0744,0.21134 -0.16528,0.33052 -0.0909,0.11914 -0.16528,0.24657 -0.16528,0.28308 0,0.0365 0.119,0.11309 0.26445,0.17025 0.15316,0.0601 0.26446,0.14785 0.26446,0.20836 0,0.12545 -0.0847,0.12738 -0.41384,0.01 z m 12.60835,-0.99555 c -0.0501,-0.33405 -0.004,-0.52087 0.119,-0.48054 0.15287,0.0502 0.13998,0.77725 -0.0137,0.77725 -0.0335,0 -0.0808,-0.13355 -0.10527,-0.29671 z m -3.13704,-0.23221 c 0,-0.0727 0.0353,-0.13217 0.0784,-0.13217 0.0431,0 0.14572,-0.0633 0.22802,-0.14059 0.14474,-0.13602 0.35472,-0.13369 0.35472,0.004 0,0.0806 -0.46126,0.40114 -0.57731,0.40114 -0.0461,0 -0.0839,-0.0596 -0.0839,-0.13218 z m -14.47664,-0.3276 c -0.17007,-0.23885 -0.78364,-0.54807 -1.4845,-0.74814 -0.28807,-0.0822 -0.53401,-0.18027 -0.54654,-0.21786 -0.053,-0.15905 0.88946,-0.45435 1.68385,-0.52759 0.32538,-0.0299 0.59863,-0.0974 0.75386,-0.1862 0.27141,-0.15507 0.36669,-0.12353 0.25534,0.0846 -0.10432,0.19485 -0.64789,0.45309 -1.06826,0.50749 -0.65055,0.0841 -0.67041,0.11941 -0.19088,0.33818 0.52315,0.23871 0.82426,0.48437 0.9159,0.74723 0.0607,0.17387 0.0539,0.19773 -0.0553,0.19773 -0.0684,0 -0.18689,-0.088 -0.26341,-0.19539 z m -3.10941,-0.11158 c -0.21549,-0.14947 -0.73753,-0.32832 -1.3503,-0.46261 -0.34078,-0.0747 -0.36134,-0.17501 -0.0725,-0.35355 0.12998,-0.0803 0.27349,-0.18325 0.31903,-0.22881 0.16742,-0.16741 1.33235,-0.83367 1.4259,-0.81551 0.17449,0.0339 0.1499,0.16494 -0.0734,0.39111 -0.29756,0.30137 -0.46114,0.4248 -0.77566,0.58525 -0.14656,0.0748 -0.26646,0.16207 -0.26646,0.19401 0,0.032 0.22599,0.14048 0.5022,0.24123 0.51143,0.18651 0.58283,0.24942 0.5443,0.47946 -0.0209,0.12476 -0.0309,0.12366 -0.25314,-0.0306 z m 12.79235,-0.10144 c -0.0701,-0.1808 -0.008,-0.41503 0.11626,-0.43872 0.14567,-0.0277 0.15888,0.23426 0.0213,0.42128 -0.0856,0.11625 -0.0985,0.1179 -0.13746,0.0174 z m 2.63786,-0.0824 c -0.0545,-0.14188 0.0937,-0.36879 0.24088,-0.36879 0.16235,0 0.16288,0.12051 10e-4,0.31404 -0.14446,0.17316 -0.19267,0.18405 -0.24229,0.0548 z m -5.13863,-0.34674 c -0.15102,-0.15103 0.10679,-0.52984 0.28537,-0.41941 0.0811,0.0501 0.0784,0.0771 -0.018,0.18367 -0.0622,0.0688 -0.1131,0.15978 -0.1131,0.20237 0,0.0847 -0.0846,0.10308 -0.15425,0.0333 z m -4.47364,-0.93536 c 0,-0.0296 -0.17851,-0.26591 -0.39668,-0.5251 -0.21818,-0.25918 -0.39668,-0.49937 -0.39668,-0.53371 0,-0.0343 0.20082,-0.0782 0.44627,-0.0974 0.24544,-0.0192 0.50462,-0.0449 0.57595,-0.0571 0.0808,-0.0137 0.13848,0.0205 0.15305,0.0909 0.0187,0.0905 -0.0434,0.12174 -0.31299,0.15746 -0.18498,0.0246 -0.35381,0.0729 -0.37514,0.10747 -0.0213,0.0346 0.0353,0.14216 0.12559,0.2392 0.27483,0.2949 0.4133,0.67229 0.24669,0.67229 -0.0364,0 -0.0662,-0.0243 -0.0662,-0.0538 z m 3.04345,-0.53891 c -0.17172,-0.17174 -0.48189,-0.78855 -0.445,-0.88495 0.0199,-0.052 0.18295,-0.0655 0.51627,-0.0428 0.39767,0.027 0.49127,0.0545 0.50941,0.14994 0.0199,0.10445 -0.0169,0.11227 -0.34647,0.0736 -0.42851,-0.0504 -0.4605,0.005 -0.21482,0.37273 0.28404,0.42495 0.27244,0.62348 -0.0194,0.33165 z m -6.9401,-0.31982 c -0.12614,-0.35802 -0.49969,-0.95571 -0.8523,-1.3637 -0.35462,-0.41035 -1.20762,-1.14633 -1.57751,-1.36111 -0.42487,-0.2467 -0.83142,-0.84826 -0.54929,-0.81277 0.11186,0.0141 1.4469,0.50749 1.75297,0.64786 0.10967,0.0502 0.55359,0.18403 0.98656,0.29722 0.5831,0.15242 0.89942,0.20068 1.21991,0.18608 0.35586,-0.0162 0.43658,-6.5e-4 0.45459,0.0873 0.0161,0.0782 -0.0581,0.12724 -0.27502,0.18181 -0.45485,0.11447 -1.064,0.0873 -1.79201,-0.08 l -0.66113,-0.15195 0.47,0.46739 c 0.57845,0.57525 1.01421,1.40428 1.01684,1.93451 9.6e-4,0.24318 -0.10253,0.22568 -0.19361,-0.0327 z m 14.47473,-0.1271 c 0,-0.17857 0.0428,-0.38092 0.0954,-0.45177 0.0944,-0.12696 0.0983,-0.12683 0.34631,0.004 0.13798,0.0727 0.26084,0.18429 0.27303,0.24792 0.0273,0.14236 -0.15597,0.1568 -0.2098,0.0166 -0.0729,-0.19007 -0.21514,-0.0991 -0.27743,0.17732 -0.0911,0.40455 -0.22756,0.40822 -0.22756,0.005 z m -3.91227,0.16696 c -0.0755,-0.0586 -0.11763,-0.20846 -0.13218,-0.47113 l -0.0214,-0.38518 0.1942,0.039 c 0.28763,0.0576 0.89667,0.34991 0.89667,0.4303 0,0.11474 -0.28553,0.0762 -0.46279,-0.0625 -0.25934,-0.20287 -0.32162,-0.16633 -0.34365,0.20164 -0.018,0.30115 -0.0309,0.32543 -0.1308,0.24792 z m 7.24464,-0.96831 c 0.0517,-0.45759 0.0575,-0.45456 -0.32453,-0.16813 -0.26155,0.19606 -0.56166,0.31144 -0.56166,0.21593 0,-0.12079 0.36415,-0.41888 0.78668,-0.64407 0.45967,-0.245 0.45043,-0.25699 0.33095,0.42907 -0.0398,0.22865 -0.11886,0.45423 -0.17562,0.50127 -0.0925,0.0766 -0.0983,0.0417 -0.0559,-0.33407 z m -14.73204,-0.18006 c -0.0571,-0.0571 -0.1201,-0.18352 -0.13996,-0.28098 -0.0199,-0.0974 -0.0637,-0.28131 -0.0973,-0.40859 -0.0863,-0.32621 -1.09027,-1.99161 -1.2887,-2.13765 -0.17933,-0.13204 -0.19097,-0.16466 -0.10637,-0.29823 0.078,-0.12298 0.32576,0.0124 0.95864,0.52089 0.54705,0.44006 1.20358,0.85719 1.34921,0.85719 0.17412,0 0.54278,0.21302 0.54278,0.31363 0,0.16329 -0.51067,0.0673 -1.06515,-0.20018 -0.26829,-0.12944 -0.49735,-0.2258 -0.50902,-0.21415 -0.0124,0.011 0.0703,0.20252 0.18219,0.42412 0.3107,0.6155 0.51306,1.52774 0.3389,1.52774 -0.0338,0 -0.10816,-0.0467 -0.16519,-0.10376 z m 8.02791,-1.08238 c 0,-0.11584 0.44133,-0.96155 0.54802,-1.05011 0.11254,-0.0933 0.21598,0.0369 0.39883,0.50215 0.20122,0.512 0.095,0.68204 -0.12559,0.2011 -0.0699,-0.15227 -0.15676,-0.28558 -0.19313,-0.29625 -0.0364,-0.011 -0.15536,0.13383 -0.26445,0.32111 -0.18911,0.32462 -0.36361,0.47916 -0.36361,0.322 z m -2.60629,-0.32606 c -0.0196,-0.0317 0.0528,-0.42594 0.16098,-0.87599 0.10816,-0.45004 0.21423,-0.90752 0.2357,-1.01659 l 0.039,-0.19835 0.13355,0.16465 c 0.15962,0.19674 0.44818,0.75451 0.52014,1.00542 0.0472,0.16457 0.041,0.17303 -0.0741,0.10116 -0.069,-0.0431 -0.19194,-0.2034 -0.27293,-0.3561 -0.081,-0.15268 -0.16726,-0.26525 -0.19168,-0.25016 -0.0244,0.0151 -0.12572,0.35511 -0.22504,0.75561 -0.16801,0.67725 -0.2355,0.81621 -0.32561,0.6704 z m 7.01563,-0.25521 c -0.0162,-0.0279 -0.0502,-0.22916 -0.0756,-0.44734 -0.0254,-0.21817 -0.062,-0.46339 -0.0814,-0.54492 l -0.0351,-0.14825 -0.20783,0.14765 c -0.11433,0.0812 -0.36271,0.27363 -0.55201,0.42761 -0.40975,0.3333 -0.54188,0.25652 -0.17099,-0.0994 0.38745,-0.37175 1.08218,-0.95728 1.10395,-0.93042 0.0332,0.041 0.17169,1.13742 0.17161,1.35864 -7e-5,0.20201 -0.0909,0.34274 -0.15255,0.23638 z m 3.73908,-0.52909 c -0.11612,-0.0399 -0.10473,-0.15502 0.0764,-0.76816 0.0874,-0.29616 0.17851,-0.62519 0.20233,-0.73117 l 0.0434,-0.1927 -0.24065,0.18354 c -0.46606,0.35549 -1.61751,0.5193 -1.34538,0.19142 0.0405,-0.0489 0.12421,-0.0887 0.18603,-0.0887 0.0618,0 0.37895,-0.12971 0.70471,-0.28829 0.47969,-0.23346 0.66405,-0.36861 0.96953,-0.71071 0.2971,-0.33273 0.39034,-0.40229 0.43909,-0.32758 0.0427,0.0655 0.01,0.1985 -0.10926,0.42974 -0.0942,0.18419 -0.32238,0.78402 -0.5073,1.33297 -0.22473,0.66718 -0.36361,0.98867 -0.41885,0.96966 z m -13.28934,-0.54543 c -0.0452,-0.0722 -0.0829,-0.31767 -0.084,-0.54543 -9.8e-4,-0.22776 -0.0452,-0.77112 -0.0977,-1.20746 -0.12065,-1.00019 -0.12188,-0.95864 0.0283,-0.95864 0.0834,0 0.25331,0.18065 0.49739,0.52899 0.38197,0.54511 0.70753,0.81516 1.07372,0.89065 0.29451,0.0607 0.38316,0.18419 0.23106,0.32184 -0.11255,0.10185 -0.14515,0.0937 -0.51214,-0.12668 -0.2156,-0.12943 -0.46638,-0.30178 -0.55728,-0.38298 -0.43649,-0.38985 -0.41092,-0.43551 -0.35861,0.64047 0.0394,0.81157 0.032,0.97051 -0.0457,0.97051 -0.0511,0 -0.1297,-0.0592 -0.17486,-0.13135 z m -2.92488,-0.63838 c 0,-0.20498 -0.08,-0.49592 -0.24106,-0.87599 -0.2443,-0.57672 -0.3661,-0.77847 -1.17712,-1.94993 -0.47881,-0.69157 -0.74528,-1.25935 -0.62573,-1.33325 0.077,-0.0476 0.0439,-0.0732 0.96036,0.74034 1.24663,1.1066 1.81459,1.47364 2.28471,1.47645 0.30224,10e-4 0.45167,0.0568 0.45167,0.16609 0,0.1941 -0.64864,0.22038 -1.1102,0.045 -0.31893,-0.12119 -1.02116,-0.56539 -1.2404,-0.78461 -0.14258,-0.1426 -0.15034,-0.16083 0.32903,0.77332 0.21458,0.41817 0.45681,0.96822 0.53828,1.22233 0.133,0.4148 0.13846,0.4807 0.0537,0.64461 -0.13932,0.2694 -0.22325,0.22265 -0.22325,-0.12436 z m 7.97288,-1.11632 c -0.26327,-0.1373 -0.34713,-0.26194 -0.4991,-0.74178 -0.0719,-0.22716 -0.17102,-0.48977 -0.22017,-0.58357 -0.0866,-0.16534 -0.0937,-0.15432 -0.23152,0.36055 -0.0782,0.29211 -0.1873,0.63916 -0.24247,0.77121 -0.10774,0.25788 -0.25368,0.27884 -0.28861,0.0414 -0.011,-0.0789 -0.047,-0.14358 -0.0785,-0.14358 -0.0316,0 0.0324,-0.19803 0.14218,-0.44008 0.21767,-0.48006 0.4533,-1.32213 0.4533,-1.61999 0,-0.28571 0.17148,-0.23082 0.29122,0.0932 0.0571,0.15454 0.182,0.53386 0.27755,0.84293 0.1923,0.6221 0.35941,0.98242 0.60558,1.30573 0.18275,0.24004 0.10912,0.28005 -0.20947,0.11393 z m 4.19614,-0.47626 c -0.0375,-0.13575 -0.11735,-0.46811 -0.17758,-0.73875 l -0.10953,-0.49206 -0.11639,0.22637 c -0.064,0.12449 -0.2409,0.36767 -0.3931,0.5404 -0.20863,0.23673 -0.32324,0.31403 -0.46557,0.31403 -0.21668,0 -0.30454,-0.0929 -0.18155,-0.19207 0.48049,-0.38727 0.59322,-0.52473 0.83293,-1.01579 0.14611,-0.29927 0.31822,-0.71581 0.38245,-0.92563 0.18094,-0.59098 0.25623,-0.44277 0.26387,0.5195 0.005,0.74865 0.0283,0.91251 0.18181,1.33177 0.21843,0.59659 0.21998,0.6789 0.0124,0.6789 -0.13107,0 -0.17526,-0.0473 -0.23028,-0.24667 z m 3.45395,-0.3277 c -0.0852,-0.40269 -0.0457,-1.7833 0.0705,-2.46683 0.14599,-0.85784 0.14101,-0.87489 -0.13506,-0.4619 -0.5569,0.83304 -1.20893,1.45221 -1.66788,1.58385 -0.20933,0.06 -0.2066,0.0542 0.15924,-0.34098 0.20474,-0.22115 0.53277,-0.62864 0.72898,-0.90555 0.19619,-0.27693 0.56561,-0.77125 0.82092,-1.09851 0.25532,-0.32725 0.5451,-0.75121 0.644,-0.94212 0.18231,-0.35193 0.3506,-0.45539 0.3506,-0.21555 0,0.0723 -0.0861,0.43799 -0.19124,0.81254 -0.29482,1.04996 -0.42038,1.89553 -0.46347,3.12114 -0.0346,0.98379 -0.0534,1.12583 -0.15142,1.14457 -0.0826,0.0158 -0.12586,-0.0445 -0.16528,-0.23066 z m -12.15716,-1.72306 c -0.005,-0.976 -0.0241,-1.13037 -0.3083,-2.46271 -0.43596,-2.04405 -0.37928,-2.0366 0.84417,0.11104 0.418,0.73375 0.94062,1.57771 1.16138,1.87544 0.26271,0.35432 0.37895,0.56377 0.33644,0.60628 -0.23385,0.23387 -0.81843,-0.44091 -1.41294,-1.63101 -0.43784,-0.87647 -0.46163,-0.91008 -0.42321,-0.5981 0.0994,0.80674 0.11516,2.51239 0.0261,2.80479 -0.16517,0.54193 -0.21828,0.37432 -0.22359,-0.7057 z m 4.86444,-0.1109 c 0,-0.0155 0.10829,-0.46927 0.24078,-1.00823 0.13245,-0.53896 0.36455,-1.58786 0.51583,-2.33089 0.15129,-0.74303 0.30647,-1.36143 0.34486,-1.37422 0.0405,-0.0137 0.0884,0.13711 0.11419,0.35926 0.11859,1.02164 0.63497,3.11206 1.01045,4.09055 0.0821,0.21375 -0.18664,0.0749 -0.34718,-0.17933 -0.31858,-0.50466 -0.51919,-1.17062 -0.72146,-2.39499 -0.0232,-0.14008 -0.0533,-0.24352 -0.0668,-0.22989 -0.0137,0.0137 -0.0999,0.43894 -0.19175,0.94514 -0.13896,0.76597 -0.21784,1.02352 -0.47031,1.5356 -0.16685,0.33842 -0.33152,0.61529 -0.36595,0.61529 -0.0344,0 -0.0626,-0.0123 -0.0626,-0.0283 z m 9.23135,30.39069 c -0.0909,-0.17578 -0.29059,-0.8088 -0.43814,-1.3887 l -0.0715,-0.28132 -0.21223,0.1072 c -0.11667,0.059 -0.27774,0.16711 -0.35781,0.24028 l -0.14559,0.133 0.64144,0.6848 c 0.35278,0.37666 0.64964,0.68519 0.65966,0.68565 0.01,3.1e-4 -0.024,-0.081 -0.0758,-0.181 z m -18.55205,-1.65282 c 0.11666,-0.20908 0.33114,-0.53597 0.47649,-0.72641 0.14808,-0.19399 0.24807,-0.38854 0.2274,-0.44241 -0.0475,-0.12367 -0.30381,-0.29113 -0.55677,-0.36368 l -0.19842,-0.057 -0.0475,0.6693 c -0.0261,0.36812 -0.0699,0.81126 -0.0973,0.98478 -0.0274,0.17351 -0.0423,0.31549 -0.0329,0.31549 0.01,0 0.11241,-0.17107 0.22906,-0.38015 z m 24.24606,-3.7634 c -0.1911,-0.29075 -0.38032,-0.58541 -0.42048,-0.65481 -0.0642,-0.1109 -0.0867,-0.11474 -0.18665,-0.0318 -0.0625,0.0519 -0.17024,0.20529 -0.23946,0.34098 l -0.12586,0.24668 0.64305,0.31969 c 0.3537,0.17584 0.65066,0.31706 0.65995,0.31384 0.01,-0.003 -0.13946,-0.24377 -0.33056,-0.53452 z m -29.63263,-1.34581 c 0.15696,-0.10802 0.31722,-0.19636 0.35612,-0.19636 0.039,0 0.0707,-0.10267 0.0707,-0.22822 0,-0.17449 -0.0552,-0.28179 -0.23441,-0.45586 -0.33266,-0.32308 -0.47449,-0.34605 -0.52872,-0.0856 -0.0661,0.31797 -0.40351,1.25801 -0.56496,1.57448 l -0.14411,0.28246 0.37998,-0.34727 c 0.20898,-0.191 0.5084,-0.43563 0.66537,-0.54364 z m 31.51986,-4.7589 c 0.46186,-0.14265 0.72455,-0.37277 0.96357,-0.84404 0.34756,-0.68529 0.3662,-1.77989 0.0413,-2.42485 -0.32182,-0.63886 -0.68121,-0.78621 -1.02292,-0.41943 -0.11145,0.11969 -0.13423,0.23373 -0.13505,0.67686 -9.7e-4,0.63931 -0.0996,0.88218 -0.16024,0.39538 -0.1459,-1.17223 -0.29179,-1.38703 -1.03191,-1.51936 -0.92662,-0.16568 -1.83386,-0.0844 -1.76184,0.15776 0.0181,0.0609 0.17116,0.63144 0.34008,1.26778 0.3628,1.36673 0.74673,2.22985 1.15657,2.60012 0.25471,0.23012 0.29241,0.24275 0.72434,0.24275 0.26971,0 0.6313,-0.0542 0.88613,-0.133 z m 5.00386,-0.74303 c -3.3e-4,-0.01 -0.0898,-0.19179 -0.19834,-0.40599 -0.10856,-0.21421 -0.19751,-0.42991 -0.19751,-0.47932 0,-0.19122 0.13753,-0.0748 0.30394,0.25724 0.21632,0.43167 0.34313,0.57849 0.49966,0.57849 0.16536,0 0.15728,-0.0279 -0.10939,-0.37709 -0.35251,-0.46167 -0.28556,-0.57372 0.10061,-0.16835 0.18185,0.19091 0.36397,0.34709 0.40472,0.34709 0.0408,0 0.17592,-0.0629 0.30037,-0.13985 l 0.22628,-0.13984 -0.18542,-0.0955 c -0.3262,-0.16811 -0.59129,-0.47983 -0.95481,-1.12272 -0.44057,-0.7792 -0.65904,-1.04759 -0.99031,-1.21657 -0.29974,-0.15292 -0.27018,-0.19453 -0.42536,0.59894 -0.12614,0.64535 -0.40631,1.57753 -0.51367,1.70957 -0.0744,0.0914 0.008,0.18571 0.30692,0.34966 0.11118,0.0611 0.11694,0.0428 0.0751,-0.23623 -0.0564,-0.37582 0.0397,-0.39584 0.19943,-0.0416 0.11982,0.26567 0.31903,0.48672 0.49748,0.55196 0.0985,0.036 0.66188,0.0618 0.66029,0.0302 z m -4.46179,-3.61972 c 0.0225,-0.0364 0.0961,-0.0661 0.16363,-0.0661 0.15726,0 0.48584,-0.4152 0.74584,-0.9425 0.27143,-0.55045 0.29622,-1.20687 0.06,-1.5869 -0.29985,-0.48229 -1.02654,-0.75569 -1.79451,-0.67516 -0.50727,0.0531 -0.59944,0.13369 -1.32635,1.15897 -0.54971,0.77532 -1.0417,1.35262 -1.35526,1.59027 l -0.22793,0.17275 0.34882,0.041 c 0.99119,0.11653 2.06165,-0.3387 2.90528,-1.23544 0.36057,-0.38329 0.4777,-0.36163 0.26032,0.0482 -0.15006,0.28287 -0.70858,0.89998 -0.81453,0.89998 -0.0309,0 -0.0561,0.11749 -0.0561,0.26117 0,0.17898 0.0364,0.28238 0.1157,0.32855 0.14984,0.0873 0.9219,0.0914 0.97517,0.005 z m -3.71957,-4.3304 c 0.58826,-0.70946 0.83837,-2.2227 0.51171,-3.09584 -0.22503,-0.60142 -0.16715,-0.58469 -1.75652,-0.50776 -0.76035,0.0368 -1.53123,0.10404 -1.71304,0.14938 l -0.33056,0.0825 -0.0202,0.39406 c -0.0187,0.36468 0.12408,1.15147 0.24423,1.34594 0.0284,0.046 0.33053,0.18733 0.67133,0.31403 0.3408,0.12669 0.75479,0.30933 0.91996,0.40582 0.38759,0.22642 0.87691,0.68968 1.03128,0.97632 0.13396,0.24869 0.18888,0.24068 0.44184,-0.0644 z m -0.78417,-1.64607 c -0.27845,-0.12463 -0.42169,-0.34754 -0.42169,-0.65615 0,-0.36751 0.34118,-0.70593 0.71172,-0.70593 0.32174,0 0.57333,0.18279 0.6748,0.49024 0.0946,0.28659 0.0369,0.50928 -0.18769,0.72444 -0.22292,0.21357 -0.50839,0.26772 -0.77714,0.1474 z m 4.39891,1.36759 c 0.39046,-0.4737 0.51351,-1.41663 0.29726,-2.27806 -0.13615,-0.5426 -0.22872,-0.6265 -0.73786,-0.669 l -0.41321,-0.0345 v 0.25006 0.25007 l 0.29572,-0.0334 c 0.27051,-0.0305 0.31561,-0.0137 0.52891,0.19985 0.26335,0.26335 0.30197,0.51661 0.12957,0.8499 -0.11242,0.21753 -0.49446,0.41714 -0.68345,0.35716 -0.10912,-0.0346 -0.1109,-0.003 -0.0309,0.50946 0.15898,1.01784 0.14864,0.98503 0.28689,0.91105 0.0682,-0.0365 0.2153,-0.17716 0.32697,-0.31265 z m 0.66678,-3.29654 c 0,-0.16322 -1.31656,-1.68096 -1.45814,-1.68096 -0.07,0 -0.074,0.65317 -0.007,1.15503 l 0.0438,0.32862 0.59503,0.1105 c 0.67281,0.12503 0.82641,0.14112 0.82641,0.0867 z m -7.07042,-0.39845 c 1.12872,-0.17854 2.37714,-0.23592 3.02641,-0.13907 0.34196,0.0511 0.35113,0.0483 0.30684,-0.0913 -0.0949,-0.29886 -0.51261,-0.91304 -1.13165,-1.66371 -0.73344,-0.8894 -0.84083,-0.93668 -1.32712,-0.58442 -0.65888,0.47729 -1.11133,0.98406 -1.57287,1.76174 -0.52554,0.88547 -0.52716,0.88871 -0.44756,0.88871 0.0324,0 0.54799,-0.0774 1.14595,-0.17198 z"
           id="path741"
           inkscape:connector-curvature="0" />
        <g
           transform="matrix(2.5094454,0,0,2.5094454,-668.40485,-901.78516)"
           id="g1204">
          <text
             inkscape:export-ydpi="96"
             inkscape:export-xdpi="96"
             xml:space="preserve"
             style="font-style:normal;font-variant:normal;font-weight:normal;font-stretch:normal;font-size:10.98592472px;line-height:1.25;font-family:Times;-inkscape-font-specification:'Times, Normal';font-variant-ligatures:normal;font-variant-caps:normal;font-variant-numeric:normal;font-feature-settings:normal;text-align:start;letter-spacing:-1.74513233px;word-spacing:0px;writing-mode:lr-tb;text-anchor:start;fill:#ec0000;fill-opacity:1;stroke:none;stroke-width:0.04796122;shape-rendering:crispEdges"
             x="446.42761"
             y="666.15918"
             id="text193"><tspan
               sodipodi:role="line"
               id="tspan191"
               x="446.42761"
               y="666.15918"
               style="font-style:normal;font-variant:normal;font-weight:normal;font-stretch:normal;font-size:10.98592472px;font-family:Times;-inkscape-font-specification:'Times, Normal';font-variant-ligatures:normal;font-variant-caps:normal;font-variant-numeric:normal;font-feature-settings:normal;text-align:start;letter-spacing:-0.42810184px;writing-mode:lr-tb;text-anchor:start;fill:#ec0000;fill-opacity:1;stroke:none;stroke-width:0.04796122">.<tspan
   id="tspan189"
   style="font-style:normal;font-variant:normal;font-weight:normal;font-stretch:normal;font-size:10.98592472px;line-height:6.25;font-family:Times;-inkscape-font-specification:'Times, Normal';font-variant-ligatures:normal;font-variant-caps:normal;font-variant-numeric:normal;font-feature-settings:normal;text-align:start;letter-spacing:-0.42810184px;writing-mode:lr-tb;text-anchor:start;fill:#ec0000;fill-opacity:1;stroke:none;stroke-width:0.04796122">ams</tspan></tspan></text>
          <g
             id="text199"
             style="font-style:normal;font-variant:normal;font-weight:normal;font-stretch:normal;font-size:32.28017044px;line-height:1.25;font-family:Times;-inkscape-font-specification:'Times, Normal';font-variant-ligatures:normal;font-variant-caps:normal;font-variant-numeric:normal;font-feature-settings:normal;text-align:start;letter-spacing:0px;word-spacing:0px;writing-mode:lr-tb;text-anchor:start;fill:#000000;fill-opacity:1;stroke:none;stroke-width:0.2017951;shape-rendering:crispEdges"
             aria-label="OBSD"
             transform="matrix(0.27013329,0,0,0.27013329,522.35914,562.09438)">
            <path
               inkscape:connector-curvature="0"
               id="path1169"
               style="font-style:italic;font-variant:normal;font-weight:bold;font-stretch:normal;font-size:32.28017044px;font-family:Times;-inkscape-font-specification:'Times, Normal';font-variant-ligatures:normal;font-variant-caps:normal;font-variant-numeric:normal;font-feature-settings:normal;text-align:start;letter-spacing:-1.57237554px;writing-mode:lr-tb;text-anchor:start;stroke:none;stroke-width:0.2017951"
               d="m -271.21003,342.42776 c -2.35645,0 -4.74519,0.83928 -6.94024,2.45329 -3.9059,2.84065 -6.68199,8.03776 -6.68199,12.52471 0,4.61606 3.06661,7.71496 7.61812,7.71496 2.55013,0 5.00342,-0.83929 7.1662,-2.4533 4.00274,-2.93749 6.64971,-8.07004 6.64971,-12.78294 0,-4.29327 -3.32486,-7.45672 -7.8118,-7.45672 z m -0.12912,1.09752 c 1.96909,0 3.29258,1.54945 3.29258,3.87362 0,3.87362 -2.00137,10.32966 -4.16415,13.49311 -1.48488,2.16278 -2.93749,3.13118 -4.68062,3.13118 -2.03365,0 -3.29258,-1.51717 -3.29258,-3.9059 0,-3.29258 1.64629,-9.26441 3.4217,-12.36331 1.64629,-2.90521 3.35714,-4.2287 5.42307,-4.2287 z" />
            <path
               inkscape:connector-curvature="0"
               id="path1171"
               style="font-style:normal;font-variant:normal;font-weight:bold;font-stretch:normal;font-size:32.28017044px;font-family:Times;-inkscape-font-specification:'Times, Normal';font-variant-ligatures:normal;font-variant-caps:normal;font-variant-numeric:normal;font-feature-settings:normal;text-align:start;letter-spacing:-1.57237554px;writing-mode:lr-tb;text-anchor:start;fill:#000000;stroke:none;stroke-width:0.2017951"
               d="m -263.43225,342.71828 v 0.807 c 2.22733,0.12912 2.84065,0.64561 2.84065,2.29189 v 15.62361 c 0,1.64629 -0.4842,2.03365 -2.84065,2.29189 v 0.807 h 10.39421 c 5.45535,0 9.07073,-2.42101 9.07073,-6.06867 0,-1.45261 -0.61332,-2.77609 -1.74313,-3.77678 -1.12981,-0.9684 -2.22733,-1.45261 -4.48694,-1.93681 3.7445,-1.09753 5.13254,-2.42101 5.13254,-4.87431 0,-3.32485 -3.00205,-5.16482 -8.39284,-5.16482 z m 8.00548,10.74929 h 0.9684 c 3.32486,0 4.93887,1.74313 4.93887,5.29395 0,3.13118 -1.32349,4.74519 -3.93818,4.74519 -1.42033,0 -1.96909,-0.54877 -1.96909,-1.96909 z m 0,-8.19916 c 0,-1.16209 0.4842,-1.58173 1.74313,-1.58173 2.25961,0 3.29258,1.38805 3.29258,4.42239 0,3.38941 -1.06525,4.29326 -5.03571,4.3901 z" />
            <path
               inkscape:connector-curvature="0"
               id="path1173"
               style="font-style:normal;font-variant:normal;font-weight:bold;font-stretch:normal;font-size:32.28017044px;font-family:Times;-inkscape-font-specification:'Times, Normal';font-variant-ligatures:normal;font-variant-caps:normal;font-variant-numeric:normal;font-feature-settings:normal;text-align:start;letter-spacing:-1.57237554px;writing-mode:lr-tb;text-anchor:start;fill:#000000;stroke:none;stroke-width:0.2017951"
               d="m -228.33536,349.20659 v -7.0048 h -0.96841 c -0.22596,0.83929 -0.4842,1.09753 -1.03296,1.09753 -0.29052,0 -0.64561,-0.0968 -1.35577,-0.35508 -1.51717,-0.51648 -2.55013,-0.71016 -3.77678,-0.71016 -4.3901,0 -7.06936,2.48557 -7.06936,6.55287 0,2.84065 1.67857,4.87431 5.51991,6.71428 l 2.16277,1.03296 c 2.84066,1.35577 3.61538,2.19505 3.61538,3.87362 0,2.22733 -1.58173,3.67994 -4.0673,3.67994 -1.87225,0 -3.48626,-0.807 -4.7129,-2.38873 -0.87157,-1.19437 -1.32349,-2.25961 -1.87225,-4.51923 h -0.93613 v 7.97321 h 0.93613 c 0.19368,-0.80701 0.45192,-1.09753 0.9684,-1.09753 0.25824,0 0.61332,0.0968 1.32349,0.3228 1.61401,0.54876 2.80837,0.77473 4.19642,0.77473 4.77747,0 8.00548,-2.74382 8.00548,-6.81112 0,-2.42101 -1.48489,-4.84203 -3.55082,-5.87499 l -4.74518,-2.35645 c -2.6147,-1.29121 -3.32486,-2.09821 -3.32486,-3.64766 0,-2.00137 1.35577,-3.22802 3.55082,-3.22802 1.45261,0 2.80837,0.61332 3.97046,1.80769 1.09753,1.12981 1.61401,2.06593 2.25961,4.16414 z" />
            <path
               inkscape:connector-curvature="0"
               id="path1175"
               style="font-style:normal;font-variant:normal;font-weight:bold;font-stretch:normal;font-size:32.28017044px;font-family:Times;-inkscape-font-specification:'Times, Normal';font-variant-ligatures:normal;font-variant-caps:normal;font-variant-numeric:normal;font-feature-settings:normal;text-align:start;letter-spacing:-1.57237554px;writing-mode:lr-tb;text-anchor:start;fill:#000000;stroke:none;stroke-width:0.2017951"
               d="m -224.43171,361.60218 c 0,1.42032 -0.807,2.06593 -2.67925,2.13049 v 0.807 h 10.20053 c 6.97252,0 11.62086,-4.45466 11.62086,-11.13666 0,-6.64971 -4.51922,-10.68473 -11.97594,-10.68473 h -9.84545 v 0.807 c 2.06593,0.19368 2.67925,0.67789 2.67925,2.16277 z m 5.22939,-16.65657 c 0,-0.74244 0.6456,-1.12981 1.90453,-1.12981 2.32417,0 3.97046,1.06525 5.06799,3.29258 0.87156,1.71085 1.32348,4.0673 1.32348,6.77884 0,3.06661 -0.6456,5.84271 -1.67857,7.29532 -1.09752,1.48488 -2.64697,2.22733 -4.74518,2.22733 -1.45261,0 -1.87225,-0.41965 -1.87225,-1.87225 z" />
          </g>
        </g>
      </g>
    </g>
  </g>
</svg>
